<?xml version="1.0" standalone="no"?>
<!DOCTYPE svg PUBLIC "-//W3C//DTD SVG 1.1//EN" "http://www.w3.org/Graphics/SVG/1.1/DTD/svg11.dtd" >
<svg xmlns="http://www.w3.org/2000/svg" xmlns:xlink="http://www.w3.org/1999/xlink" version="1.1">
<metadata></metadata>
<defs>
<font id="vag_rundschrift_dregular" horiz-adv-x="1092" >
<font-face units-per-em="2048" ascent="1638" descent="-410" />
<missing-glyph horiz-adv-x="512" />
<glyph horiz-adv-x="0" />
<glyph unicode="&#xd;" horiz-adv-x="512" />
<glyph unicode=" "  horiz-adv-x="512" />
<glyph unicode="&#x09;" horiz-adv-x="512" />
<glyph unicode="&#xa0;" horiz-adv-x="512" />
<glyph unicode="!" horiz-adv-x="525" d="M95 135q0 69 49.5 117.5t120.5 48.5q72 0 122 -55q43 -48 43 -112q0 -75 -55 -125q-48 -43 -112 -43q-75 0 -125 55q-43 48 -43 114zM125 606v593q0 85 20 125q17 33 53.5 54t76.5 21t76.5 -21t53.5 -54q20 -40 20 -125v-593q0 -86 -20 -126q-17 -33 -53.5 -54t-76.5 -21 t-76.5 21t-53.5 54q-20 40 -20 126z" />
<glyph unicode="&#x22;" horiz-adv-x="901" d="M124 1043v163q0 73 17 107q14 28 45.5 46t65.5 18q35 0 66.5 -18t45.5 -46q17 -34 17 -107v-163q0 -72 -17 -107q-14 -28 -45.5 -46t-66.5 -18q-34 0 -65.5 18t-45.5 46q-17 34 -17 107zM520 1043v163q0 73 17 107q14 28 45.5 46t65.5 18q35 0 66.5 -18t45.5 -46 q17 -34 17 -107v-163q0 -72 -17 -107q-14 -28 -45.5 -46t-65.5 -18q-35 0 -66.5 18t-45.5 46q-17 34 -17 107z" />
<glyph unicode="#" horiz-adv-x="1147" d="M25 502q0 65 87 65h160l92 226h-107q-88 0 -88 67q0 66 88 66h160l73 180q25 61 70 61q26 0 45.5 -18.5t19.5 -44.5q0 -17 -13 -48l-54 -130h230l73 179q25 62 71 62q27 0 46.5 -19t19.5 -45q0 -17 -13 -48l-51 -129h100q88 0 88 -66q0 -67 -88 -67h-157l-91 -226h107 q87 0 87 -65t-87 -65h-160l-73 -183q-25 -63 -70 -63q-27 0 -46.5 19t-19.5 45q0 16 13 48l53 134h-227l-74 -183q-26 -63 -71 -63q-27 0 -47 19.5t-20 45.5q0 18 12 49l53 132h-104q-87 0 -87 65zM415 567h229l91 226h-228z" />
<glyph unicode="$" d="M52 204q0 57 39 102q41 46 100 46q24 0 45 -6t126 -41q84 -29 158 -29q72 0 118.5 39t46.5 99t-49.5 93t-203.5 75q-126 35 -177 57.5t-94 63.5q-107 101 -107 259q0 174 127 298q52 51 107 78t146 46v96q0 57 13 83q25 50 86 50q62 0 87 -50q13 -26 13 -83v-94 q127 -21 201 -64q86 -51 86 -126q0 -63 -42 -105.5t-104 -42.5q-35 0 -130 31q-62 20 -107 20q-65 0 -107 -31q-48 -35 -48 -84q0 -39 28.5 -63t95.5 -42q230 -62 326 -121q177 -108 177 -325q0 -172 -102 -290q-51 -59 -112 -92t-162 -57v-108q0 -57 -13 -83 q-25 -50 -86 -50q-62 0 -87 50q-13 26 -13 83v97q-122 10 -223 47q-159 59 -159 174z" />
<glyph unicode="%" horiz-adv-x="1639" d="M32 960q0 170 66 285q41 72 107 113t144 43q107 0 192 -81q60 -57 93 -153t33 -212q0 -167 -67 -290q-39 -69 -108 -114q-67 -42 -143 -42q-108 0 -193 81q-124 119 -124 370zM234 957q0 -256 115 -256q116 0 116 256q0 253 -116 256q-115 0 -115 -256zM476 55 q0 26 18 72l471 1181q20 51 42.5 71.5t60.5 20.5q39 0 68 -28t29 -66q0 -25 -18 -70l-472 -1182q-21 -51 -43 -71t-59 -20q-39 0 -68 27.5t-29 64.5zM974 442q0 170 66 285q41 72 107 113t144 43q107 0 192 -81q60 -57 93 -153t33 -212q0 -167 -67 -290q-39 -69 -108 -114 q-67 -42 -143 -42q-108 0 -193 81q-124 119 -124 370zM1176 439q0 -256 115 -256q116 0 116 256q0 253 -116 256q-115 0 -115 -256z" />
<glyph unicode="&#x26;" horiz-adv-x="1371" d="M34 383q0 128 66.5 227t220.5 202q-121 131 -121 277q0 68 37 131t101 103q122 76 288 76q186 0 302 -95q102 -85 102 -221q0 -104 -69 -191.5t-195 -144.5l195 -210l114 121q42 44 97 44q53 0 90.5 -39.5t37.5 -95.5q0 -40 -14.5 -64.5t-82.5 -100.5l-52 -59l86 -87 q75 -77 75 -135q0 -61 -43.5 -103.5t-105.5 -42.5q-57 0 -133 79l-92 95q-86 -71 -146 -103q-146 -80 -298 -80q-182 0 -318 109q-142 113 -142 308zM334 417q0 -74 50 -122q56 -55 137 -55q54 0 103.5 22t130.5 81l-273 286q-86 -60 -117 -105t-31 -107zM514 1059 q0 -40 35 -80l58 -68q76 37 106.5 69.5t30.5 74.5q0 43 -33.5 73t-82.5 30t-81.5 -28t-32.5 -71z" />
<glyph unicode="'" horiz-adv-x="505" d="M124 1043v163q0 73 17 107q14 28 45.5 46t65.5 18q35 0 66.5 -18t45.5 -46q17 -34 17 -107v-163q0 -72 -17 -107q-14 -28 -45.5 -46t-66.5 -18q-34 0 -65.5 18t-45.5 46q-17 34 -17 107z" />
<glyph unicode="(" horiz-adv-x="587" d="M107 560q0 288 75 554q53 186 91.5 245.5t104.5 60.5q50 0 86 -33q41 -37 41 -83q0 -25 -17 -71q-117 -327 -117 -687q0 -358 117 -686q17 -46 17 -71q0 -46 -38.5 -81t-88.5 -35q-48 0 -77 27t-59 97q-53 126 -94 314q-41 193 -41 449z" />
<glyph unicode=")" horiz-adv-x="589" d="M82 -211q0 25 16 71q117 327 117 687q0 192 -26.5 348.5t-90.5 337.5q-16 47 -16 71q0 46 37.5 80.5t89.5 35.5q47 0 76.5 -26.5t58.5 -97.5q53 -125 94 -314q41 -193 41 -449q0 -290 -75 -554q-52 -183 -91 -244.5t-104 -61.5q-50 0 -87 33q-40 37 -40 83z" />
<glyph unicode="*" horiz-adv-x="791" d="M68 915q0 64 70 89l88 32l-100 40q-53 21 -53 79q0 48 32 82.5t77 34.5q31 0 55 -22l72 -68l-10 97q-2 23 -2 38q0 37 26.5 59.5t71.5 22.5t71.5 -22.5t26.5 -59.5q0 -15 -2 -38l-10 -97l72 68q24 22 55 22q44 0 76.5 -34.5t32.5 -82.5q0 -58 -53 -79l-100 -40l88 -32 q70 -25 70 -89q0 -47 -31 -80t-74 -33q-32 0 -53 17l-83 68l13 -90q2 -11 2 -28q0 -45 -27.5 -73t-73.5 -28t-73.5 28t-27.5 73q0 17 2 28l13 90l-83 -68q-21 -17 -53 -17q-43 0 -74 33t-31 80z" />
<glyph unicode="+" d="M68 690q0 58 48 82q24 13 79 13h256v270q0 54 13 79q24 47 82 47t82 -47q13 -25 13 -79v-270h256q54 0 80 -13q47 -24 47 -82t-47 -82q-25 -13 -80 -13h-256v-270q0 -54 -13 -79q-24 -48 -82 -48t-82 48q-13 25 -13 79v270h-256q-54 0 -79 13q-48 24 -48 82z" />
<glyph unicode="," horiz-adv-x="547" d="M26 -157q0 35 19 68l184 320q39 68 119 68q66 0 107 -49q38 -44 38 -93q0 -33 -18 -64l-178 -320q-40 -72 -121 -72q-70 0 -113 48q-37 42 -37 94z" />
<glyph unicode="-" horiz-adv-x="505" d="M0 566q0 34 18 65.5t46 45.5q34 17 107 17h163q73 0 107 -17q28 -14 46 -45.5t18 -65.5q0 -35 -18 -66.5t-46 -45.5q-34 -17 -107 -17h-163q-73 0 -107 17q-28 14 -46 45.5t-18 66.5z" />
<glyph unicode="." horiz-adv-x="546" d="M106 135q0 69 49.5 117.5t120.5 48.5q72 0 122 -55q43 -48 43 -112q0 -75 -55 -125q-48 -43 -112 -43q-75 0 -125 55q-43 48 -43 114z" />
<glyph unicode="/" horiz-adv-x="916" d="M66 -205q0 27 22 81l586 1413q23 58 44.5 77.5t59.5 19.5q39 0 67.5 -27t28.5 -64q0 -27 -22 -80l-585 -1413q-24 -58 -45.5 -78t-59.5 -20q-39 0 -67.5 27.5t-28.5 63.5z" />
<glyph unicode="0" d="M42 693q0 353 168 546q64 74 152.5 116t181.5 44q124 0 240 -78q134 -90 206 -279q61 -164 61 -359q0 -232 -84 -412q-79 -172 -218 -249q-101 -56 -204 -56q-124 0 -240 76q-263 174 -263 651zM363 688q0 -185 44 -297q22 -55 59.5 -86.5t80.5 -31.5q44 0 80.5 35 t58.5 97q44 125 44 277q0 158 -44 278q-47 128 -139 132q-86 0 -135 -108t-49 -296z" />
<glyph unicode="1" d="M191 1227q0 37 19.5 70.5t49.5 49.5q36 18 114 18h176q69 0 98.5 -8.5t57 -35.5t36 -57t8.5 -99v-978q0 -88 -21 -129q-17 -34 -55 -56t-79 -22q-42 0 -80 22t-55 56q-21 41 -21 129v902h-65q-77 0 -114 19q-30 15 -49.5 48.5t-19.5 70.5z" />
<glyph unicode="2" d="M73 131q0 36 18 68.5t66 83.5q53 57 203.5 230t184.5 217q69 89 96.5 144.5t27.5 105.5q0 57 -37.5 95.5t-93.5 38.5q-113 0 -150 -137q-30 -110 -55 -136q-35 -38 -94 -38q-66 0 -105.5 42t-39.5 111q0 128 79 243q77 111 202 164q86 36 180 36q185 0 314 -123 q121 -116 121 -289q0 -105 -40 -197t-139 -214q-128 -159 -272 -300h296q78 0 115 -18q30 -16 49.5 -49.5t19.5 -70.5t-19.5 -70.5t-49.5 -48.5q-37 -19 -115 -19h-588q-54 0 -83.5 9t-53.5 33q-37 37 -37 89z" />
<glyph unicode="3" d="M60 343q0 57 44 98.5t104 41.5q59 0 97 -42q10 -11 51 -83q28 -47 74.5 -75t97.5 -28q77 0 126 49t49 126q0 72 -40.5 109t-128.5 44q-78 7 -111 33q-49 40 -49 106q0 59 35 93q15 14 32.5 21t83.5 26q130 35 130 135q0 51 -35 83t-90 32q-82 0 -161 -89q-41 -47 -70 -64 t-65 -17q-55 0 -94 40t-39 96q0 53 28.5 107t77.5 95q67 55 157 87t178 32q167 0 281 -95q126 -104 126 -272q0 -126 -74 -211q-17 -19 -78 -67q66 -36 100.5 -65t64.5 -74q62 -90 62 -206q0 -203 -153 -331q-134 -112 -330 -112q-164 0 -286 78q-89 57 -146 151 q-49 80 -49 148z" />
<glyph unicode="4" d="M28 423q0 35 17 67l403 746q80 149 223 149q98 0 154 -67q57 -68 57 -162v-589h33q60 0 94 -28q49 -40 49 -103q0 -61 -45.5 -101.5t-112.5 -40.5h-18v-120q0 -83 -19 -121q-16 -32 -51.5 -52.5t-74.5 -20.5t-74.5 20.5t-51.5 52.5q-20 38 -20 121v120h-397 q-77 0 -120 33q-46 35 -46 96zM365 567h226v430z" />
<glyph unicode="5" d="M68 235q0 62 41 105.5t99 43.5q29 0 50.5 -9.5t104.5 -59.5q70 -42 154 -42q80 0 132 61.5t52 157.5q0 88 -46 140t-125 52q-39 0 -63 -8t-100 -45q-30 -15 -66 -15q-54 0 -90.5 34.5t-36.5 85.5q0 16 3 43l52 435q8 72 46.5 111.5t98.5 39.5h449q78 0 115 -19 q30 -15 49.5 -48.5t19.5 -70.5t-19.5 -70.5t-49.5 -48.5q-37 -19 -115 -19h-322l-19 -175q76 21 135 21q181 0 294 -122q111 -120 111 -318q0 -226 -128 -370q-142 -159 -373 -159q-194 0 -350 109q-103 71 -103 160z" />
<glyph unicode="6" d="M63 433q0 153 67 309.5t214 348.5q144 187 209.5 247.5t126.5 60.5q59 0 102.5 -40.5t43.5 -94.5q0 -49 -39 -104q-10 -14 -88 -97q-59 -66 -159 -200q61 19 110 19q155 0 271 -109q135 -127 135 -325q0 -144 -74 -263q-72 -117 -202 -174q-102 -45 -222 -45 q-189 0 -323 107q-94 75 -139 188q-33 84 -33 172zM384 451q0 -75 51 -126.5t125 -51.5q72 0 123.5 51.5t51.5 124.5t-51 123.5t-125 51.5q-73 0 -124 -51.5t-51 -121.5z" />
<glyph unicode="7" d="M68 1227q0 37 19.5 70.5t49.5 48.5q36 19 115 19h581q83 0 125 -43q45 -46 45 -115q0 -30 -25 -88l-445 -1017q-30 -68 -67 -98.5t-91 -30.5q-59 0 -106 39q-54 46 -54 105q0 43 16 78l409 894h-388q-78 0 -115 19q-30 15 -49.5 48.5t-19.5 70.5z" />
<glyph unicode="8" d="M43 413q0 110 45 189.5t146 147.5q-72 66 -100.5 125t-28.5 141q0 178 136 287q120 96 305 96t305 -96q136 -109 136 -287q0 -82 -28.5 -141t-100.5 -125q94 -63 136 -131q55 -90 55 -207q0 -189 -131 -312q-67 -63 -165.5 -98.5t-206.5 -35.5q-148 0 -272 64 q-126 66 -186 187q-45 90 -45 196zM364 452q0 -83 60 -137q52 -47 122 -47q81 0 135 60q47 52 47 122q0 75 -51.5 127t-127.5 55q-83 0 -138 -60q-47 -52 -47 -120zM407 997q0 -59 40.5 -99.5t98.5 -40.5t98.5 40.5t40.5 98.5q0 56 -39.5 96t-97.5 42q-59 0 -100 -40 t-41 -97z" />
<glyph unicode="9" d="M50 917q0 144 74 263q72 117 202 174q102 45 222 45q189 0 323 -107q94 -75 139 -188q33 -84 33 -172q0 -153 -67 -309.5t-214 -348.5q-145 -187 -210.5 -247.5t-126.5 -60.5q-58 0 -102 40.5t-44 94.5q0 45 20.5 77t106.5 125q59 64 160 199q-62 -19 -110 -19 q-155 0 -271 109q-135 127 -135 325zM371 916q0 -73 51.5 -124t124.5 -51t124 51q51 53 51 122q0 75 -51 126t-125 52q-72 0 -123.5 -51.5t-51.5 -124.5z" />
<glyph unicode=":" horiz-adv-x="546" d="M106 135q0 69 49.5 117.5t120.5 48.5q72 0 122 -55q43 -48 43 -112q0 -75 -55 -125q-48 -43 -112 -43q-75 0 -125 55q-43 48 -43 114zM106 728q0 69 49.5 117.5t120.5 48.5t122 -55q43 -48 43 -112q0 -75 -56 -125q-48 -43 -112 -43q-74 0 -124 55q-43 48 -43 114z" />
<glyph unicode=";" horiz-adv-x="547" d="M26 -157q0 35 19 68l184 320q39 68 119 68q66 0 107 -49q38 -44 38 -93q0 -33 -18 -64l-178 -320q-40 -72 -121 -72q-70 0 -113 48q-37 42 -37 94zM153 729q0 69 49.5 117.5t120.5 48.5q72 0 122 -55q43 -48 43 -112q0 -75 -55 -125q-48 -43 -112 -43q-75 0 -125 55 q-43 48 -43 114z" />
<glyph unicode="&#x3c;" horiz-adv-x="1024" d="M68 588v218l887 450v-257l-613 -303l613 -303v-256z" />
<glyph unicode="=" d="M68 526q0 58 48 82q24 13 79 13h702q54 0 79 -13q48 -23 48 -82q0 -58 -47 -82q-26 -13 -89 -13h-693q-54 0 -79 13q-48 24 -48 82zM68 867q0 58 48 82q24 13 79 13h702q54 0 79 -13q48 -23 48 -82q0 -58 -47 -82q-26 -13 -89 -13h-693q-54 0 -79 13q-48 24 -48 82z" />
<glyph unicode="&#x3e;" horiz-adv-x="1024" d="M68 136v257l613 303l-613 303v256l887 -451v-218z" />
<glyph unicode="?" horiz-adv-x="988" d="M34 1056q0 121 116 224q134 119 326 119q97 0 188 -32.5t156 -91.5q134 -120 134 -310q0 -152 -90.5 -258t-249.5 -141q1 -12 1 -17q0 -60 -20 -100q-17 -33 -53.5 -54t-76.5 -21q-41 0 -77.5 21t-53.5 54q-20 40 -20 125v97q0 63 27 90.5t102 39.5q172 29 172 158 q0 70 -55 106q-43 28 -94 28q-86 0 -155 -94q-37 -51 -64.5 -68.5t-69.5 -17.5q-61 0 -102 41t-41 102zM295 135q0 69 49.5 117.5t120.5 48.5t122 -55q43 -48 43 -112q0 -75 -55 -125q-48 -43 -112 -43q-75 0 -125 55q-43 48 -43 114z" />
<glyph unicode="@" horiz-adv-x="1595" d="M109 670q0 206 110 386q105 173 283 262q153 77 333 77q266 0 447 -155q104 -89 157 -217q47 -111 47 -234q0 -211 -120 -357q-115 -139 -322 -139q-64 0 -96 20.5t-52 73.5q-48 -51 -89 -70.5t-101 -19.5q-131 0 -215 92.5t-84 237.5q0 180 105 302q126 147 286 147 q58 0 96.5 -19t77.5 -67q45 81 118 81q40 0 67.5 -27t27.5 -67q0 -11 -1 -17l-55 -447q-3 -27 -3 -33q0 -22 28 -22q40 0 81 47q42 48 67.5 126t25.5 157q0 202 -141 327q-133 119 -343 119q-237 0 -396 -161q-164 -167 -164 -405q0 -178 97 -321q78 -115 196 -166.5 t304 -51.5q69 0 121 9.5t160 43.5q34 10 64 10q33 0 57 -21.5t24 -51.5q0 -70 -119.5 -110.5t-329.5 -40.5q-274 0 -447 117q-143 97 -223 256q-79 156 -79 329zM625 652q0 -71 34.5 -112t95.5 -41q75 0 125 64.5t50 161.5q0 68 -35.5 108t-94.5 41q-75 0 -125 -63.5 t-50 -158.5z" />
<glyph unicode="A" horiz-adv-x="1243" d="M7 128q0 37 26 108l357 981q63 175 232 175q168 0 231 -175l357 -981q26 -71 26 -109q0 -62 -47.5 -106.5t-112.5 -44.5q-61 0 -97.5 38t-61.5 128l-33 119h-525l-33 -119q-25 -90 -61.5 -128t-97.5 -38q-53 0 -97 32q-63 45 -63 120zM458 541h331l-165 519z" />
<glyph unicode="B" horiz-adv-x="1163" d="M95 228v910q0 71 6 100t27 57q53 70 157 70h38h274q98 0 163.5 -20t119.5 -66q115 -99 115 -255q0 -93 -37.5 -155t-124.5 -115q112 -34 171 -86q111 -99 111 -261q0 -156 -102 -270q-123 -137 -316 -137h-374q-79 0 -113 9.5t-65 40.5t-40.5 65t-9.5 113zM409 273h216 q54 0 81.5 9.5t49.5 36.5q34 40 34 97q0 151 -173 151h-208v-294zM409 847h157q58 0 95 36t37 93q0 51 -41 83.5t-105 32.5h-143v-245z" />
<glyph unicode="C" horiz-adv-x="1171" d="M33 688q0 109 29.5 220.5t80.5 192.5q102 162 285 242q125 55 284 56q182 0 294.5 -61t112.5 -159q0 -60 -36 -99t-92 -39q-36 0 -114 31q-85 34 -164 34q-141 0 -227 -85q-118 -117 -118 -342t116 -334q91 -85 231 -85q59 0 86 7.5t132 54.5q37 16 69 16q53 0 90.5 -42 t37.5 -100q0 -94 -97 -152q-130 -78 -317 -78q-289 0 -473 176q-210 202 -210 546z" />
<glyph unicode="D" horiz-adv-x="1304" d="M95 233v905q0 71 6 100t27 57q53 70 157 70h38h256q269 0 438 -124q130 -95 194 -255q58 -147 58 -311q0 -228 -103 -395q-99 -161 -274 -232q-118 -48 -255 -48h-11l-306 5q-78 1 -111.5 10.5t-64.5 40.5q-30 30 -39.5 64.5t-9.5 112.5zM409 273h156q171 0 260 91 q109 112 109 320q0 213 -124 324q-50 45 -116 64.5t-165 19.5h-120v-819z" />
<glyph unicode="E" horiz-adv-x="943" d="M95 228v909q0 72 6 101t27 57q53 70 157 70h38h379q79 0 116 -19q31 -15 50.5 -49t19.5 -72t-19.5 -72t-50.5 -49q-37 -19 -116 -19h-293v-260h261q80 0 117 -19q31 -15 50.5 -49t19.5 -72t-19.5 -72t-50.5 -49q-37 -19 -117 -19h-261v-265h293q79 0 116 -19 q31 -15 50.5 -49t19.5 -72t-19.5 -72t-50.5 -49q-37 -19 -116 -19h-379q-79 0 -113 9.5t-65 40.5t-40.5 65t-9.5 113z" />
<glyph unicode="F" horiz-adv-x="935" d="M95 189v948q0 72 6 101t27 57q53 70 157 70h38h384q80 0 117 -19q31 -15 50.5 -49t19.5 -72t-19.5 -72t-50.5 -49q-38 -19 -117 -19h-298v-271h248q79 0 116 -19q31 -15 50.5 -49t19.5 -72t-19.5 -72t-50.5 -49q-37 -19 -116 -19h-248v-345q0 -89 -21 -130 q-17 -35 -55.5 -57t-80.5 -22t-80 22t-56 56q-21 42 -21 131z" />
<glyph unicode="G" horiz-adv-x="1372" d="M34 675q0 314 194 517q199 207 506 207q206 0 374 -99q138 -81 138 -184q0 -55 -41 -96q-43 -43 -97 -43q-34 0 -62.5 13.5t-127.5 76.5q-35 22 -91.5 37t-106.5 15q-149 0 -245 -112q-106 -124 -106 -325q0 -213 115 -338q89 -98 242 -98q145 0 223 104q46 61 67 178 h-151q-79 0 -117 19q-31 15 -50.5 49t-19.5 72t20 72t50 49q37 19 117 19h305q88 0 128 -46.5t40 -150.5q0 -272 -178 -461q-173 -184 -448 -184q-315 0 -506 218q-172 195 -172 491z" />
<glyph unicode="H" horiz-adv-x="1399" d="M95 189v988q0 88 21 130q18 34 56 56t80 22t80.5 -22t55.5 -56q21 -42 21 -130v-337h580v337q0 88 21 130q18 34 56 56t80 22t80.5 -22t55.5 -56q21 -42 21 -130v-988q0 -89 -21 -130q-17 -35 -55.5 -57t-80.5 -22t-80 22t-56 56q-21 42 -21 131v371h-580v-371 q0 -89 -21 -130q-17 -35 -55.5 -57t-80.5 -22t-80 22t-56 56q-21 42 -21 131z" />
<glyph unicode="I" horiz-adv-x="504" d="M95 189v987q0 89 21 131q18 34 56 56t80 22t80.5 -22t55.5 -56q21 -42 21 -131v-987q0 -89 -21 -130q-17 -35 -55.5 -57t-80.5 -22t-80 22t-56 56q-21 42 -21 131z" />
<glyph unicode="J" horiz-adv-x="830" d="M-27 181q0 63 42.5 105t105.5 42q39 0 98 -34q60 -35 96 -35q106 0 106 175v742q0 89 21 131q18 34 56 56t80 22t80.5 -22t55.5 -56q21 -42 21 -131v-742q0 -125 -21 -206.5t-69 -139.5q-100 -122 -311 -122q-156 0 -267 68q-94 59 -94 147z" />
<glyph unicode="K" horiz-adv-x="1229" d="M95 189v987q0 89 21 131q18 34 56 56t80 22t80.5 -22t55.5 -56q21 -42 21 -131v-349l403 452q57 62 92 84.5t79 22.5q62 0 104 -43.5t42 -108.5q0 -46 -17 -77t-76 -90l-329 -334l416 -441q55 -59 71.5 -89.5t16.5 -76.5q0 -66 -40 -106.5t-105 -40.5q-51 0 -82.5 19 t-90.5 84l-484 531v-424q0 -89 -21 -131q-17 -34 -55.5 -56t-80.5 -22t-80 22t-56 56q-21 42 -21 131z" />
<glyph unicode="L" horiz-adv-x="848" d="M95 237v939q0 89 21 131q18 34 56 56t80 22t80.5 -22t55.5 -56q21 -42 21 -131v-896h293q79 0 116 -19q31 -15 50.5 -49t19.5 -72t-19.5 -72t-50.5 -49q-37 -19 -116 -19h-370q-82 0 -117.5 10t-67.5 42t-42 67.5t-10 117.5z" />
<glyph unicode="M" horiz-adv-x="1667" d="M25 139q0 22 9 75l162 993q14 85 61 126q61 53 149 53q70 0 122.5 -36t72.5 -98l230 -703l211 673q24 76 79 119.5t128 43.5q80 0 140 -50q55 -47 66 -113l175 -1005q10 -56 10 -80q0 -67 -45 -112t-111 -45q-80 0 -123 58q-28 37 -42 126l-105 643l-193 -642 q-22 -71 -34 -97.5t-30 -44.5q-45 -43 -120 -43q-68 0 -109 34.5t-66 113.5l-217 679l-102 -643q-14 -88 -41 -126q-42 -58 -122 -58q-67 0 -111 45t-44 114z" />
<glyph unicode="N" horiz-adv-x="1394" d="M95 189v1036q0 73 42.5 116.5t113.5 43.5q41 0 70 -15.5t59 -53.5l604 -759v619q0 89 21 131q18 34 56 56t80 22t80.5 -22t55.5 -56q21 -42 21 -131v-1017q0 -49 -9 -77t-33 -55q-44 -47 -108 -47q-49 0 -75.5 18.5t-85.5 94.5l-578 734v-638q0 -89 -21 -130 q-17 -35 -55.5 -57t-80.5 -22t-80 22t-56 56q-21 42 -21 131z" />
<glyph unicode="O" horiz-adv-x="1418" d="M34 695q0 106 27.5 212.5t75.5 183.5q103 166 289 250q126 56 283 58q207 0 374 -106q171 -109 247 -302q54 -139 54 -307q0 -350 -225 -555q-179 -163 -446 -163q-304 0 -493 201q-186 198 -186 528zM369 697q0 -207 94 -331q42 -56 109 -88t141 -32q138 0 225 96 q111 124 111 342q0 211 -101 328q-90 105 -237 107q-143 0 -241 -109q-101 -114 -101 -313z" />
<glyph unicode="P" horiz-adv-x="1131" d="M102 189v949q0 71 6 100t27 57q53 70 157 70h38h282q228 0 349 -114q67 -63 105 -155t38 -192q0 -181 -105 -311q-118 -145 -345 -145h-238v-259q0 -89 -21 -130q-17 -35 -55.5 -57t-80.5 -22t-80 22t-56 56q-21 42 -21 131zM416 721h159q100 0 156 56q52 52 52 127 q0 85 -53 136.5t-139 51.5h-175v-371z" />
<glyph unicode="Q" horiz-adv-x="1494" d="M34 686q0 328 205 529q189 184 475 184q285 0 473 -189q87 -87 138 -207q64 -148 64 -323q0 -128 -29 -229.5t-98 -211.5l82 -68q53 -44 71 -72.5t18 -67.5q0 -60 -43 -103t-102 -43q-52 0 -130 68l-107 92q-159 -79 -331 -79q-277 0 -465 171q-114 105 -169 253 q-52 141 -52 296zM369 687q0 -178 75 -295q93 -146 276 -146q45 0 91 18l-54 50q-41 38 -41 96q0 53 42 96.5t94 43.5q51 0 112 -53l46 -39q44 107 44 235q0 202 -104 322q-91 104 -237 104q-141 0 -231 -97q-113 -121 -113 -335z" />
<glyph unicode="R" horiz-adv-x="1164" d="M95 189v949q0 71 6 100t27 57q53 70 157 70h38h278q209 0 337 -106q142 -118 142 -317q0 -174 -106 -276q-40 -39 -86 -60t-128 -39l266 -294q75 -83 75 -141q0 -64 -46.5 -109.5t-111.5 -45.5q-41 0 -72.5 20.5t-77.5 77.5l-384 481v-367q0 -89 -21 -130 q-17 -35 -55.5 -57t-80.5 -22t-80 22t-56 56q-21 42 -21 131zM409 774h195q78 0 123.5 45.5t45.5 107.5q0 70 -50.5 117.5t-125.5 47.5h-188v-318z" />
<glyph unicode="S" horiz-adv-x="1094" d="M55 197q0 62 42 108q39 41 94 41q29 0 52.5 -7t134.5 -49q79 -30 155 -30q82 0 129 42q43 40 43 101q0 65 -53 98q-46 30 -218 81q-120 36 -179 64t-102 71q-88 86 -88 248q0 139 81 247q67 89 176.5 137.5t245.5 49.5q165 0 270.5 -56.5t105.5 -144.5q0 -61 -40.5 -103 t-98.5 -42q-23 0 -36.5 3.5t-71.5 24.5q-72 25 -140 25t-112.5 -31.5t-44.5 -80.5q0 -50 42 -79q28 -18 49 -25.5t120 -34.5q201 -54 305 -141q124 -103 124 -290t-116 -313q-135 -145 -405 -145q-200 0 -347 71q-117 58 -117 160z" />
<glyph unicode="T" horiz-adv-x="993" d="M0 1225q0 38 19.5 72t50.5 49q37 19 117 19h619q80 0 117 -19q31 -15 50.5 -49t19.5 -72t-19.5 -72t-50.5 -49q-37 -19 -117 -19h-149v-896q0 -89 -21 -130q-17 -35 -55.5 -57t-80.5 -22t-80 22t-56 56q-21 42 -21 131v896h-156q-79 0 -117 19q-31 15 -50.5 49.5 t-19.5 71.5z" />
<glyph unicode="U" horiz-adv-x="1352" d="M82 518v658q0 89 21 131q18 34 56 56t80 22t80.5 -22t55.5 -56q21 -42 21 -131v-613q0 -133 64 -210q36 -42 95 -68t121 -26q66 0 126 28.5t96 77.5q58 77 58 234v577q0 89 21 131q18 34 56 56t80 22t80.5 -22t55.5 -56q21 -42 21 -131v-577q0 -194 -41 -290 q-72 -167 -239 -262q-144 -81 -316 -81q-178 0 -327 88q-128 76 -196.5 195.5t-68.5 268.5z" />
<glyph unicode="V" horiz-adv-x="1223" d="M21 1235q0 62 48 107t112 45q59 0 95.5 -34t67.5 -119l267 -710l267 710q31 84 67.5 118.5t95.5 34.5q57 0 103 -37q57 -46 57 -115q0 -39 -30 -114l-405 -1020q-28 -72 -63 -100.5t-95 -28.5q-101 0 -144 107l-413 1042q-30 74 -30 114z" />
<glyph unicode="W" horiz-adv-x="1773" d="M6 1242q0 61 44.5 104.5t107.5 43.5q71 0 112 -48q30 -35 49 -120l166 -721l234 743q44 141 166 141q64 0 104 -33.5t63 -107.5l236 -743l161 717q20 86 50 122q41 50 113 50q65 0 109.5 -44t44.5 -108q0 -30 -15 -91l-239 -996q-20 -82 -74 -126.5t-133 -44.5 q-156 0 -212 171l-208 646l-192 -630q-35 -114 -101 -155q-53 -33 -125 -33q-69 0 -124 40t-70 100l-251 1031q-16 61 -16 92z" />
<glyph unicode="X" horiz-adv-x="1252" d="M36 130q0 58 64 144l343 459l-279 367q-59 78 -62 135v6q0 55 45 99q48 46 111 46q45 0 76.5 -21.5t76.5 -83.5l211 -288l196 281q46 66 78.5 89t81.5 23q81 0 128 -64q32 -43 32 -92q0 -55 -63 -138l-271 -359l346 -459q64 -85 64 -144q0 -60 -48.5 -106t-111.5 -46 q-47 0 -79 22t-79 87l-274 379l-268 -377q-45 -64 -78.5 -87t-79.5 -23q-81 0 -129 66q-31 43 -31 85z" />
<glyph unicode="Y" horiz-adv-x="1179" d="M34 1232q0 62 47 107.5t112 45.5q47 0 79 -22.5t77 -88.5l232 -331l244 335q46 64 78 86t79 22q81 0 128 -66q31 -43 31 -85q0 -59 -63 -142l-340 -449v-455q0 -89 -21 -130q-17 -35 -55.5 -57t-80.5 -22t-80 22t-56 56q-21 42 -21 131v455l-329 451q-61 84 -61 137z" />
<glyph unicode="Z" horiz-adv-x="1069" d="M0 157q0 37 13 64t60 89l582 775h-442q-80 0 -117 19q-31 15 -50.5 49.5t-19.5 71.5t19.5 71.5t50.5 49.5q37 19 117 19h648q61 0 94.5 -14.5t61.5 -52.5q28 -40 28 -93q0 -61 -44 -120l-596 -805h478q79 0 116 -19q31 -15 50.5 -49t19.5 -72t-19.5 -72t-50.5 -49 q-37 -19 -116 -19h-684q-60 0 -92 11.5t-64 45.5q-43 43 -43 100z" />
<glyph unicode="[" horiz-adv-x="607" d="M147 -127v1353q0 59 7.5 85t32 49.5t52 31t90.5 7.5h126q63 0 93 -14q24 -12 40 -38t16 -54q0 -29 -16 -55t-40 -38q-30 -14 -93 -14h-57v-1273h57q63 0 93 -14q24 -12 40 -38t16 -54q0 -29 -16 -55t-40 -38q-30 -14 -93 -14h-126h-18q-164 0 -164 155v18z" />
<glyph unicode="\" horiz-adv-x="916" d="M66 1295q0 37 28.5 64t67.5 27q38 0 59 -19.5t45 -77.5l586 -1413q22 -54 22 -81q0 -37 -29 -64t-67 -27t-59.5 20t-45.5 78l-585 1413q-22 53 -22 80z" />
<glyph unicode="]" horiz-adv-x="607" d="M14 -193q0 28 16 54t40 38q30 14 93 14h57v1273h-57q-63 0 -93 14q-24 12 -40 38t-16 55q0 28 16 54t40 38q30 14 93 14h126q62 0 90 -7.5t52 -30.5q25 -24 32.5 -49.5t7.5 -85.5v-1353v-16q0 -157 -164 -157h-18h-126q-63 0 -93 14q-24 12 -40 38t-16 55z" />
<glyph unicode="^" horiz-adv-x="1024" d="M12 689l330 684h340l331 -684h-272l-229 477l-229 -477h-271z" />
<glyph unicode="_" horiz-adv-x="1024" d="M0 -96h1024v-233h-1024v233z" />
<glyph unicode="`" horiz-adv-x="1024" d="M172 1393q0 43 29.5 73t71.5 30q21 0 38 -7l309 -126q45 -19 63.5 -41t18.5 -58q0 -45 -29.5 -74t-74.5 -29q-28 0 -46 8l-303 124q-77 32 -77 100z" />
<glyph unicode="a" horiz-adv-x="1148" d="M34 524q0 242 157 398q138 136 314 136q79 0 135.5 -26t120.5 -92q25 59 60.5 85.5t88.5 26.5q63 0 106 -44t43 -110v-735q0 -78 -42 -127.5t-109 -49.5q-105 0 -150 119q-58 -71 -112 -98t-137 -27q-167 0 -297 115q-178 157 -178 429zM334 522q0 -117 56 -189 q57 -73 153 -73q92 0 150 72.5t58 188.5q0 123 -64 192q-59 64 -145 65q-93 0 -152 -72q-56 -71 -56 -184z" />
<glyph unicode="b" horiz-adv-x="1133" d="M88 146v1156q0 85 20 125q17 33 53 54t77 21t77 -21t53 -54q20 -40 20 -125v-332q67 49 121.5 69t121.5 20q187 0 325 -151q142 -154 142 -385q0 -255 -159 -414q-128 -129 -305 -129q-85 0 -143.5 28t-106.5 91q-46 -113 -142 -113q-68 0 -111 44.5t-43 115.5zM386 523 q0 -118 60 -190q62 -73 149 -73q86 0 144.5 74.5t58.5 185.5q0 105 -55 181q-56 77 -149 78q-88 0 -148 -73.5t-60 -182.5z" />
<glyph unicode="c" horiz-adv-x="936" d="M34 522q0 256 157 399q150 136 358 138q147 0 260 -61q38 -21 61 -58.5t23 -78.5q0 -56 -35 -96t-84 -40q-29 0 -109 30q-63 24 -108 24q-98 0 -160.5 -73t-62.5 -188q0 -125 69 -195q64 -64 160 -64q58 0 121 29q56 26 86 26q59 0 94 -46q31 -41 31 -90q0 -68 -58 -111 q-53 -41 -134.5 -64.5t-166.5 -23.5q-221 0 -365 156q-137 149 -137 387z" />
<glyph unicode="d" horiz-adv-x="1134" d="M34 526q0 168 93 315q76 121 204 178q89 40 171 40q128 0 244 -95v338q0 85 20 125q17 33 53 54t77 21t77 -21t53 -54q20 -40 20 -125v-1144q0 -81 -40 -126.5t-110 -45.5q-57 0 -89.5 27t-56.5 92q-45 -62 -96 -88q-73 -37 -163 -37q-213 0 -344 188q-113 164 -113 358z M335 538q0 -118 60 -190q62 -73 149 -73q86 0 144.5 74.5t58.5 185.5q0 105 -55 181q-56 77 -149 78q-88 0 -148 -73.5t-60 -182.5z" />
<glyph unicode="e" horiz-adv-x="1082" d="M34 503q0 263 169 420q146 135 346 135q175 0 311 -108q87 -70 138 -180.5t51 -231.5q0 -119 -131 -119h-560q33 -90 91.5 -133.5t146.5 -43.5q54 0 92 12.5t156 70.5q31 15 67 15q54 0 90 -46q30 -39 30 -77q0 -85 -121 -154q-146 -83 -329 -83q-275 0 -433 191 q-114 138 -114 332zM347 624h406q-19 74 -44 110q-55 78 -152 78q-76 0 -127 -45.5t-83 -142.5z" />
<glyph unicode="f" horiz-adv-x="730" d="M0 901q0 37 19 70.5t49 48.5q36 18 114 18h13v141q0 148 99 235q91 80 228 80q83 0 128.5 -36t45.5 -102q0 -58 -31 -92.5t-86 -37.5q-84 0 -84 -82v-106h53q77 0 114 -18q30 -15 49 -48t19 -70t-19 -70.5t-49 -48.5q-37 -18 -114 -18h-53v-578q0 -86 -20 -126 q-16 -33 -53 -54t-77 -21t-76.5 21t-53.5 54q-20 40 -20 126v578h-13q-77 0 -114 18q-30 15 -49 48.5t-19 69.5z" />
<glyph unicode="g" horiz-adv-x="1126" d="M34 511q0 266 165 424q130 124 300 124q76 0 130.5 -26t118.5 -93q33 61 65.5 86.5t79.5 25.5q65 0 105 -45.5t40 -119.5v-794q0 -233 -125 -368q-142 -153 -408 -153q-203 0 -360 86q-92 50 -92 135q0 57 42 93q42 38 95 38q19 0 36 -4.5t98 -32.5q104 -35 185 -35 q151 0 205 99q25 46 34 165q-61 -77 -115.5 -106.5t-136.5 -29.5q-127 0 -237 68q-126 78 -183 226q-42 109 -42 237zM335 520q0 -123 60 -192q59 -68 144 -68q88 0 145.5 73t57.5 185q0 126 -70 202q-54 58 -136 59q-79 0 -134 -57q-67 -71 -67 -202z" />
<glyph unicode="h" horiz-adv-x="1120" d="M88 187v1115q0 85 20 125q17 33 53.5 54t76.5 21t76.5 -21t53.5 -54q20 -40 20 -125v-331q144 87 276 87q159 0 265 -100q55 -52 78.5 -117t23.5 -164v-490q0 -86 -20 -126q-17 -33 -53.5 -54t-76.5 -21t-76.5 21t-53.5 54q-20 40 -20 126v405q0 97 -42 148 q-49 59 -126 59q-75 0 -125 -53t-50 -134v-425q0 -86 -20 -126q-17 -33 -53.5 -54t-76.5 -21t-76.5 21t-53.5 54q-20 40 -20 126z" />
<glyph unicode="i" horiz-adv-x="526" d="M89 1327q0 73 51.5 123.5t126.5 50.5t127 -58q45 -50 45 -117q0 -78 -58 -130q-50 -45 -117 -45q-78 0 -130 58q-45 50 -45 118zM111 187v664q0 86 20 126q17 33 53.5 54t76.5 21t77 -21t53 -54q20 -40 20 -126v-664q0 -86 -20 -126q-16 -33 -53 -54t-77 -21t-76.5 21 t-53.5 54q-20 40 -20 126z" />
<glyph unicode="j" horiz-adv-x="529" d="M90 1327q0 73 52 123.5t126 50.5q75 0 127 -58q45 -50 45 -117q0 -78 -58 -130q-50 -45 -117 -45q-78 0 -130 58q-45 50 -45 118zM123 -223v1075q0 84 20 125q17 33 53 54t77 21q40 0 76.5 -21t53.5 -54q20 -40 20 -125v-1075q0 -85 -20 -125q-17 -33 -53.5 -54 t-76.5 -21t-76.5 21t-53.5 54q-20 40 -20 125z" />
<glyph unicode="k" horiz-adv-x="1041" d="M88 187v1115q0 85 20 125q17 33 53.5 54t76.5 21t76.5 -21t53.5 -54q20 -40 20 -125v-605l276 283q77 79 138 79t104 -43.5t43 -106.5q0 -58 -81 -135l-188 -180l263 -327q65 -80 65 -133q0 -61 -45 -105t-108 -44q-41 0 -71 20t-75 77l-321 411v-306q0 -86 -20 -126 q-17 -33 -53.5 -54t-76.5 -21t-76.5 21t-53.5 54q-20 40 -20 126z" />
<glyph unicode="l" horiz-adv-x="477" d="M88 187v1115q0 85 20 125q17 33 53.5 54t76.5 21t76.5 -21t53.5 -54q20 -40 20 -125v-1115q0 -86 -20 -126q-17 -33 -53.5 -54t-76.5 -21t-76.5 21t-53.5 54q-20 40 -20 126z" />
<glyph unicode="m" horiz-adv-x="1703" d="M88 187v692q0 78 40.5 125.5t107.5 47.5q45 0 75.5 -20.5t70.5 -77.5q116 104 266 104q116 0 205 -50q39 -22 83 -81q89 73 159.5 102t157.5 29q156 0 258 -99q103 -101 103 -248v-524q0 -86 -20 -126q-17 -33 -53.5 -54t-76.5 -21t-76.5 21t-53.5 54q-20 40 -20 126v457 q0 69 -42.5 112t-111.5 43q-71 0 -115 -43t-44 -112v-457q0 -86 -20 -126q-17 -33 -53.5 -54t-76.5 -21t-76.5 21t-53.5 54q-20 40 -20 126v427q0 91 -43 138t-113 47q-68 0 -112.5 -44t-44.5 -111v-457q0 -86 -20 -126q-17 -33 -53.5 -54t-76.5 -21t-76.5 21t-53.5 54 q-20 40 -20 126z" />
<glyph unicode="n" horiz-adv-x="1116" d="M88 187v688q0 83 42 129q44 48 111 48q97 0 139 -105q67 62 128.5 86.5t149.5 24.5q157 0 260 -91q61 -53 85 -116.5t24 -171.5v-492q0 -86 -20 -126q-16 -33 -53 -54t-77 -21t-76.5 21t-53.5 54q-20 40 -20 126v421q0 85 -43 135q-49 56 -126 56q-72 0 -121 -51.5 t-49 -127.5v-433q0 -86 -20 -126q-17 -33 -53.5 -54t-76.5 -21t-76.5 21t-53.5 54q-20 40 -20 126z" />
<glyph unicode="o" horiz-adv-x="1078" d="M35 526q0 105 35.5 203t98.5 165q151 161 370 164q140 0 266 -79q124 -78 186 -212q51 -112 51 -248q0 -227 -134 -375q-75 -82 -182 -126q-92 -38 -186 -38q-143 0 -268 78q-124 78 -186 213q-51 112 -51 255zM333 522q0 -108 50 -177q60 -85 151 -85q81 0 142 64 q70 72 70 195q0 121 -70 195q-59 63 -142 64q-85 0 -143 -74t-58 -182z" />
<glyph unicode="p" horiz-adv-x="1126" d="M88 -223v1097q0 83 38.5 130.5t106.5 47.5q53 0 85 -25.5t60 -88.5q55 61 104 85q73 36 163 36q162 0 282 -116q164 -160 164 -414q0 -234 -136 -397q-128 -152 -328 -152q-70 0 -121.5 19t-117.5 69v-291q0 -85 -20 -125q-17 -33 -53.5 -54t-76.5 -21t-76.5 21t-53.5 54 q-20 40 -20 125zM379 523q0 -118 56 -190.5t147 -72.5q93 0 149 77q59 80 59 183q0 104 -59 182q-57 76 -149 77q-85 0 -138 -63q-65 -76 -65 -193z" />
<glyph unicode="q" horiz-adv-x="1129" d="M34 511q0 223 132 386q61 76 146.5 118.5t176.5 42.5q78 0 137 -25.5t118 -85.5q37 59 69.5 82t78.5 23q63 0 105.5 -43.5t42.5 -107.5v-1124q0 -85 -20 -125q-17 -33 -53.5 -54t-76.5 -21t-76.5 21t-53.5 54q-20 40 -20 125v294q-118 -92 -242 -92q-79 0 -167.5 39 t-149.5 100q-69 69 -108 174t-39 219zM335 522q0 -112 59 -190q56 -73 147 -73t150 73.5t59 186.5q0 107 -52 179q-57 80 -157 81q-90 0 -146 -73q-60 -78 -60 -184z" />
<glyph unicode="r" horiz-adv-x="748" d="M88 187v693q0 79 37 121q45 51 113 51q101 0 150 -107q63 63 109 88.5t98 25.5q64 0 109 -45.5t45 -110.5q0 -54 -30.5 -81.5t-122.5 -56.5q-123 -39 -165.5 -80t-42.5 -120v-378q0 -86 -20 -126q-17 -33 -53.5 -54t-76.5 -21t-76.5 21t-53.5 54q-20 40 -20 126z" />
<glyph unicode="s" horiz-adv-x="892" d="M55 198q0 52 38.5 93t86.5 41q27 0 46 -6.5t109 -47.5q72 -32 121 -32q36 0 61.5 20t25.5 49q0 39 -52 63q-28 12 -147 57q-141 54 -199.5 121.5t-58.5 176.5q0 140 109.5 232.5t277.5 93.5q150 0 256 -74q85 -59 85 -132q0 -52 -35.5 -92t-81.5 -40q-23 0 -39.5 5.5 t-86.5 36.5q-69 30 -115 30q-79 0 -79 -53q0 -29 26 -46.5t131 -58.5q99 -39 144.5 -65t83.5 -66q75 -77 75 -187q0 -69 -30.5 -135.5t-82.5 -111.5q-106 -90 -284 -90q-166 0 -294 81q-91 57 -91 137z" />
<glyph unicode="t" horiz-adv-x="725" d="M0 901q0 53 32 89t86 45q19 3 69 3v154q0 85 20 125q17 33 53.5 54t76.5 21t76.5 -21t53.5 -54q20 -40 20 -125v-154h56q77 0 114 -18q30 -15 49 -48t19 -70t-19 -70.5t-49 -48.5q-37 -18 -114 -18h-56v-578q0 -86 -20 -126q-17 -33 -53 -54t-77 -21q-40 0 -76.5 21 t-53.5 54q-20 40 -20 126v578h-4q-110 0 -148 45q-35 41 -35 91z" />
<glyph unicode="u" horiz-adv-x="1111" d="M88 405v446q0 85 20 126q17 33 53 54t77 21q40 0 76.5 -21t53.5 -54q20 -40 20 -126v-409q0 -47 10.5 -75t37.5 -54q49 -48 119 -48t119 48q48 46 48 129v409q0 86 20 126q17 33 53.5 54t76.5 21t76.5 -21t53.5 -54q20 -40 20 -126v-446q0 -153 -73 -248 q-62 -80 -160 -126q-110 -52 -234 -52q-174 0 -305 93q-85 60 -123.5 139.5t-38.5 193.5z" />
<glyph unicode="v" horiz-adv-x="1005" d="M29 907q0 60 45.5 103.5t108.5 43.5q62 0 98 -34t64 -120l152 -452l152 450q29 87 65.5 121.5t99.5 34.5q54 0 97 -34q58 -46 58 -116q0 -39 -29 -113l-257 -640q-38 -95 -76 -130t-104 -35q-121 0 -179 144l-266 664q-29 73 -29 113z" />
<glyph unicode="w" horiz-adv-x="1526" d="M19 911q0 59 44.5 101.5t105.5 42.5q62 0 97.5 -35t61.5 -121l134 -449l146 465q23 73 60 105t99 32q106 0 149 -137l148 -463l132 445q25 83 57 117q39 41 104 41q50 0 90 -29q61 -45 61 -118q0 -36 -23 -104l-212 -605q-41 -118 -87.5 -165.5t-119.5 -47.5 q-64 0 -105 37.5t-70 122.5l-128 376l-105 -323q-39 -119 -82.5 -166t-116.5 -47q-128 0 -184 160l-232 661q-24 68 -24 104z" />
<glyph unicode="x" horiz-adv-x="1072" d="M41 141q0 58 77 141l244 262l-196 213q-77 82 -77 142q0 64 46 109.5t111 45.5q42 0 73 -20.5t77 -78.5l146 -184l148 181q46 57 77 77t73 20q65 0 111 -46.5t46 -111.5q0 -60 -80 -143l-195 -204l240 -267q74 -83 74 -140q0 -64 -45.5 -109t-110.5 -45q-40 0 -70.5 20 t-75.5 75l-192 235l-195 -234q-47 -57 -77.5 -76.5t-72.5 -19.5q-65 0 -110.5 46t-45.5 112z" />
<glyph unicode="y" horiz-adv-x="1018" d="M21 910q0 58 45 100.5t106 42.5q58 0 92 -31t66 -111l176 -445l176 442q32 82 67 113.5t94 31.5q57 0 100 -36q53 -45 53 -110q0 -41 -31 -114l-458 -1092q-24 -57 -41 -81q-43 -58 -117 -58q-56 0 -99 37q-51 44 -51 106q0 41 31 113l118 277l-297 702q-30 72 -30 113z " />
<glyph unicode="z" horiz-adv-x="919" d="M1 103q0 42 35 90l419 573h-269q-78 0 -114 18q-30 15 -49 48.5t-19 70.5q0 36 19 69.5t49 48.5q36 18 114 18h580q52 0 87.5 -31.5t35.5 -77.5q0 -47 -42 -104l-405 -553h295q77 0 114 -18q30 -15 49 -48.5t19 -69.5q0 -37 -19 -70.5t-49 -48.5q-37 -18 -114 -18h-581 q-82 0 -119 28q-36 29 -36 75z" />
<glyph unicode="{" horiz-adv-x="667" d="M82 543q0 67 28 97q5 5 44 30q48 33 49 145v303q0 155 70.5 218t243.5 63q91 0 121 -34q29 -32 29 -71q0 -97 -124 -106q-57 -5 -71.5 -30t-14.5 -117v-244q0 -97 -25.5 -149.5t-94.5 -97.5q69 -45 94.5 -97t25.5 -150v-244q0 -92 14.5 -117t71.5 -30q124 -9 124 -106 q0 -46 -37 -80q-27 -25 -118 -25q-169 0 -239 64t-70 217v304q0 73 -14 102t-67 63q-24 15 -32 34t-8 58z" />
<glyph unicode="|" horiz-adv-x="1024" d="M382 -341v1706h259v-1706h-259z" />
<glyph unicode="}" horiz-adv-x="667" d="M0 -194q0 97 124 107q57 4 71.5 29t14.5 117v244q0 98 25.5 150.5t94.5 96.5q-69 45 -94.5 97t-25.5 150v244q0 92 -14.5 117t-71.5 30q-124 9 -124 106q0 46 37 80q27 25 119 25q168 0 238 -64t70 -217v-303q0 -73 14 -102t67 -64q24 -15 32 -34t8 -58q0 -67 -28 -97 q-5 -5 -43 -30q-49 -33 -50 -144v-304q0 -155 -70.5 -218t-243.5 -63q-91 0 -121 34q-29 32 -29 71z" />
<glyph unicode="~" horiz-adv-x="1365" d="M185 1243q10 22 16 35q38 86 63.5 124.5t65.5 70.5q67 53 165 53q67 0 212 -53q89 -33 118 -41t61 -8q50 0 80.5 22t67.5 83l147 -85q-45 -94 -75.5 -138t-73.5 -75q-81 -58 -175 -58q-54 0 -208 55q-132 48 -170 48q-51 0 -81.5 -25.5t-69.5 -100.5z" />
<glyph unicode="&#xa1;" horiz-adv-x="525" d="M95 907q0 69 49.5 117.5t120.5 48.5q72 0 122 -55q43 -48 43 -112q0 -75 -55 -125q-48 -43 -112 -43q-75 0 -125 56q-43 47 -43 113zM125 -162v594q0 85 20 125q17 33 53.5 54t76.5 21q41 0 77 -21t53 -54q20 -40 20 -125v-594q0 -85 -20 -125q-17 -33 -53.5 -54 t-76.5 -21t-76.5 21t-53.5 54q-20 41 -20 125z" />
<glyph unicode="&#xa2;" d="M109 674q0 165 74 298q57 103 136 159t204 85v62q0 58 14 85q26 51 89 51t88 -51q14 -27 14 -85v-62q256 -52 256 -196q0 -55 -37 -96.5t-87 -41.5q-24 0 -116 33q-48 18 -109 18q-91 0 -150 -62q-70 -73 -70 -196q0 -119 68 -188q66 -67 161 -67q53 0 172 46q20 8 44 8 q47 0 83.5 -41.5t36.5 -94.5q0 -65 -44 -106q-31 -30 -72.5 -47.5t-135.5 -41.5v-72q0 -58 -14 -86q-25 -51 -88 -51t-89 51q-14 28 -14 86v72q-151 30 -252 126q-162 153 -162 405z" />
<glyph unicode="&#xa3;" d="M-26 691q0 39 19.5 74.5t49.5 51.5q37 20 116 20h27q-34 97 -34 176q0 82 37.5 155.5t104.5 124.5q143 106 347 106q194 0 332 -99q65 -47 101.5 -109t36.5 -126q0 -69 -47 -112q-49 -44 -108 -44q-41 0 -71 22t-64.5 79t-77.5 83t-103 26q-81 0 -125 -53 q-36 -43 -36 -100q0 -44 41 -129h111q79 0 116 -20q30 -16 49.5 -51t19.5 -75q0 -39 -19.5 -74.5t-49.5 -51.5q-37 -20 -116 -20h-76v-10q0 -98 -75 -246h453q79 0 115 -19q30 -16 49.5 -51.5t19.5 -73.5q0 -39 -19.5 -74t-49.5 -51q-36 -20 -115 -20h-670 q-76 0 -121.5 40.5t-45.5 109.5q0 38 9 61t36 60q55 72 73.5 119.5t32.5 154.5h-88q-79 0 -116 20q-30 16 -49.5 51.5t-19.5 74.5z" />
<glyph unicode="&#xa4;" horiz-adv-x="1256" d="M143 683q0 134 73 256l-10 10q-61 61 -61 108q0 49 34.5 82.5t84.5 33.5q43 0 104 -61l11 -11q119 67 249 67q134 0 249 -67l11 11q61 61 107 61q48 0 82 -34.5t34 -83.5q0 -45 -61 -106l-9 -9q73 -121 73 -257q0 -131 -68 -249q65 -63 65 -111q0 -49 -34.5 -82.5 t-83.5 -33.5q-44 0 -108 63q-123 -73 -256 -73q-136 0 -257 74q-62 -65 -111 -65t-82.5 34.5t-33.5 84.5q0 46 66 110q-68 117 -68 248zM375 682q0 -104 74 -178q75 -75 180 -75q104 0 178.5 74.5t74.5 179.5q0 107 -74 178.5t-176 74.5q-108 0 -183 -74q-74 -74 -74 -180z " />
<glyph unicode="&#xa5;" d="M58 1249q0 54 45.5 96t104.5 42q56 0 93 -32q34 -29 54 -79q11 -30 12 -31l168 -361h15l168 358q6 15 13 32q44 113 149 113q56 0 99 -36q53 -45 53 -105q0 -24 -9.5 -61.5t-20.5 -57.5l-136 -243h33q116 0 116 -87q0 -88 -116 -88h-131l-62 -112h193q116 0 116 -87 q0 -88 -116 -88h-207v-236q0 -85 -20 -125q-17 -33 -53.5 -54t-76.5 -21t-76.5 21t-53.5 54q-20 40 -20 125v236h-201q-116 0 -116 87q0 88 116 88h193l-62 112h-131q-116 0 -116 87q0 88 116 88h34l-137 246q-30 55 -30 119z" />
<glyph unicode="&#xa6;" horiz-adv-x="1024" d="M382 314h259v-655h-259v655zM382 657v708h259v-708h-259z" />
<glyph unicode="&#xa7;" d="M63 -106q0 51 36.5 89t86.5 38q28 0 49.5 -7t123.5 -50q79 -33 151 -33q69 0 109 33.5t40 91.5q0 57 -45 91q-27 21 -57.5 34.5t-144.5 57.5q-192 74 -257 140q-72 74 -72 202q0 160 115 246q-66 77 -66 194q0 194 162 297q119 75 278 75q153 0 258.5 -53.5t105.5 -131.5 q0 -52 -36.5 -88t-88.5 -36q-23 0 -36 3.5t-68 25.5q-72 29 -134 29q-63 0 -100.5 -26t-37.5 -69q0 -46 36 -76q25 -20 44.5 -28.5t111.5 -40.5q182 -64 280 -149q48 -42 76 -107.5t28 -136.5q0 -155 -107 -251q34 -58 46 -96.5t12 -92.5q0 -174 -120 -283 q-116 -106 -331 -106q-199 0 -349 78q-99 52 -99 136zM348 625q0 -64 40.5 -100.5t161.5 -83.5q102 -39 161 -65q35 53 35 103q0 58 -33 97.5t-111 75.5q-20 9 -210 77q-44 -42 -44 -104z" />
<glyph unicode="&#xa8;" horiz-adv-x="1024" d="M140 1323q0 62 44.5 105.5t108.5 43.5q60 0 103.5 -44.5t43.5 -105.5q0 -62 -44 -106t-106 -44q-63 0 -106.5 44t-43.5 107zM584 1323q0 62 44.5 105.5t108.5 43.5q60 0 103.5 -44.5t43.5 -105.5q0 -62 -44 -106t-106 -44q-63 0 -106.5 44t-43.5 107z" />
<glyph unicode="&#xa9;" horiz-adv-x="1638" d="M109 682q0 202 105 376q103 169 286 262q151 76 331 76q191 0 360 -105q170 -106 260 -284q78 -153 78 -325q0 -200 -104 -372q-104 -171 -281 -262q-152 -79 -323 -79q-198 0 -369.5 104t-263.5 285q-79 154 -79 324zM262 682q0 -238 166 -407q164 -167 392 -167 q230 0 393 168.5t163 405.5q0 162 -82 301q-79 136 -220 212q-111 59 -246 62q-236 0 -401 -166.5t-165 -408.5zM461 692q0 91 32.5 170.5t90.5 131.5q114 103 284 104q111 0 179 -36t68 -95q0 -36 -23 -60t-59 -24q-22 0 -70 18q-49 19 -95 19q-80 0 -128 -46 q-68 -63 -68 -188q0 -122 66 -181q52 -46 132 -46q34 0 50 4.5t76 29.5q23 10 44 10q34 0 58 -25.5t24 -61.5q0 -59 -71 -97t-180 -38q-173 0 -284 100q-126 116 -126 311z" />
<glyph unicode="&#xaa;" horiz-adv-x="791" d="M49 862q0 146 101 240q89 82 203 82q89 0 159 -65q31 61 96 61q43 0 72 -28t29 -69v-434q0 -49 -28.5 -80t-73.5 -31q-67 0 -97 64q-34 -38 -68.5 -53t-86.5 -15q-107 0 -191 69q-115 95 -115 259zM252 861q0 -67 34 -107.5t91 -40.5q55 0 89.5 40.5t34.5 104.5 q0 66 -34 106t-91 41q-55 0 -89.5 -40t-34.5 -104z" />
<glyph unicode="&#xab;" horiz-adv-x="1174" d="M113 555q0 58 51 128l173 239q45 61 112 61q50 0 85.5 -38.5t35.5 -92.5q0 -53 -41 -96l-196 -201l196 -201q41 -43 41 -96q0 -54 -35.5 -92.5t-85.5 -38.5q-67 0 -112 61l-173 239q-51 70 -51 128zM605 555q0 58 51 128l173 239q44 61 111 61q51 0 86.5 -38.5 t35.5 -92.5q0 -53 -42 -96l-196 -201l196 -201q42 -43 42 -96q0 -54 -35.5 -92.5t-86.5 -38.5q-67 0 -111 61l-173 239q-51 70 -51 128z" />
<glyph unicode="&#xac;" horiz-adv-x="1024" d="M68 304v242h887v-546h-259v304h-628z" />
<glyph unicode="&#xad;" horiz-adv-x="505" d="M0 566q0 34 18 65.5t46 45.5q34 17 107 17h163q73 0 107 -17q28 -14 46 -45.5t18 -65.5q0 -35 -18 -66.5t-46 -45.5q-34 -17 -107 -17h-163q-73 0 -107 17q-28 14 -46 45.5t-18 66.5z" />
<glyph unicode="&#xae;" horiz-adv-x="1638" d="M109 682q0 202 105 376q103 169 286 262q151 76 331 76q191 0 360 -105q170 -106 260 -284q78 -153 78 -325q0 -200 -104 -372q-104 -171 -281 -262q-152 -79 -323 -79q-198 0 -369.5 104t-263.5 285q-79 154 -79 324zM262 682q0 -238 166 -407q164 -167 392 -167 q230 0 393 168.5t163 405.5q0 162 -82 301q-79 136 -220 212q-111 59 -246 62q-236 0 -401 -166.5t-165 -408.5zM530 414v530v14q0 121 127 121h14h164q125 0 204 -61q86 -67 86 -183q0 -174 -183 -214l149 -156q46 -48 46 -84q0 -38 -29.5 -65.5t-70.5 -27.5q-45 0 -93 57 l-215 255v-186q0 -125 -99 -125q-61 0 -87 48q-13 25 -13 77zM729 748h108q41 0 67 22t26 57q0 36 -28 60.5t-69 24.5h-104v-164z" />
<glyph unicode="&#xaf;" horiz-adv-x="1024" d="M0 1462v233h1024v-233h-1024z" />
<glyph unicode="&#xb0;" horiz-adv-x="846" d="M109 1061q0 125 91 213q93 89 223 91q130 0 222 -90t92 -218t-91 -218q-92 -92 -223 -92t-223 92q-91 90 -91 222zM264 1059q0 -68 46 -113q47 -47 113 -47q65 0 112 46.5t47 110.5q0 65 -46 110.5t-113 46.5q-65 0 -112 -45.5t-47 -108.5z" />
<glyph unicode="&#xb1;" d="M68 156q0 58 48 82q24 13 79 13h702q54 0 79 -13q48 -23 48 -82q0 -58 -47 -82q-26 -13 -89 -13h-693q-54 0 -79 13q-48 24 -48 82zM68 785q0 58 48 82q25 13 79 13h256v270q0 54 13 79q24 47 82 47t82 -47q13 -25 13 -79v-270h256q54 0 80 -13q47 -24 47 -82t-47 -82 q-25 -13 -80 -13h-256v-229q0 -54 -13 -79q-24 -48 -82 -48t-82 48q-13 25 -13 79v229h-256q-54 0 -79 13q-48 24 -48 82z" />
<glyph unicode="&#xb2;" horiz-adv-x="797" d="M94 631q0 39 55 94q33 33 128 135.5t115 127.5q77 93 77 143q0 30 -21.5 51t-53.5 21q-66 0 -89 -76q-20 -66 -39 -86.5t-61 -20.5q-44 0 -71 26.5t-27 70.5q0 120 105 202q83 66 192 66q118 0 203 -74q78 -69 78 -176q0 -85 -62.5 -179.5t-211.5 -232.5h169 q123 0 123 -88t-123 -88h-370q-56 0 -86 22t-30 62z" />
<glyph unicode="&#xb3;" horiz-adv-x="797" d="M86 756q0 36 29.5 62.5t70.5 26.5q34 0 51 -13t48 -64q36 -58 102 -58q46 0 75 27t29 69q0 75 -100 84q-107 10 -107 89q0 38 24 60q15 13 76 29q76 20 76 74q0 26 -20 43t-52 17q-48 0 -96 -50q-47 -50 -89 -50q-38 0 -64.5 25.5t-26.5 61.5q0 71 69 124q93 72 215 72 q105 0 182 -57q81 -62 81 -166q0 -54 -19.5 -90t-69.5 -73q137 -74 137 -205q0 -123 -99 -200q-86 -68 -212 -68q-106 0 -184 47q-54 33 -90 85t-36 98z" />
<glyph unicode="&#xb4;" horiz-adv-x="1024" d="M322 1264q0 36 18 58t64 41l309 126q17 7 37 7q43 0 72.5 -30t29.5 -73q0 -68 -77 -100l-303 -124q-19 -8 -46 -8q-45 0 -74.5 29t-29.5 74z" />
<glyph unicode="&#xb5;" d="M79 -223v1074q0 85 20 126q17 33 53 54t77 21q40 0 76.5 -21t53.5 -54q20 -40 20 -126v-409q0 -47 10.5 -75t37.5 -54q49 -48 119 -48t119 48q48 46 48 129v409q0 86 20 126q17 33 53.5 54t76.5 21t76.5 -21t53.5 -54q20 -40 20 -126v-446q0 -153 -73 -248 q-62 -80 -160 -126q-111 -52 -236 -52q-76 0 -165 26v-228q0 -85 -20 -125q-17 -33 -53.5 -54t-76.5 -21t-76.5 21t-53.5 54q-20 40 -20 125z" />
<glyph unicode="&#xb6;" d="M2 950q0 187 105 313q85 102 254 102h407h28q83 0 120 -74q18 -35 18 -131v-1258q0 -77 -15 -113q-13 -29 -41 -48.5t-59 -19.5q-30 0 -58 19.5t-41 48.5q-15 36 -15 113v1217h-109v-1217q0 -77 -15 -113q-13 -29 -41 -48.5t-59 -19.5q-30 0 -58.5 19.5t-40.5 48.5 q-15 36 -15 113v638h-37q-167 0 -251 131q-77 119 -77 279z" />
<glyph unicode="&#xb7;" horiz-adv-x="437" d="M51 613q0 69 49.5 117.5t120.5 48.5q72 0 122 -55q43 -48 43 -112q0 -75 -55 -125q-48 -43 -112 -43q-75 0 -125 55q-43 48 -43 114z" />
<glyph unicode="&#xb8;" horiz-adv-x="1024" d="M325 -270q0 24 18 61l103 209h211l-152 -319q-21 -43 -78 -43q-42 0 -72 27t-30 65z" />
<glyph unicode="&#xb9;" horiz-adv-x="797" d="M168 1277q0 54 47 76q24 12 75 12h111h14q119 0 119 -113v-12v-577q0 -54 -14 -80q-27 -49 -91 -49t-91 49q-14 26 -14 80v526h-34q-122 0 -122 88z" />
<glyph unicode="&#xba;" horiz-adv-x="747" d="M50 864q0 135 87 222q96 97 237 99q141 0 237 -99q87 -89 87 -227q0 -136 -87 -226q-95 -99 -236 -99q-143 0 -238 99q-87 90 -87 231zM251 861q0 -61 30 -101q36 -47 90 -47q53 0 90 42.5t37 103.5q0 62 -36.5 104t-90.5 43q-51 0 -85.5 -41.5t-34.5 -103.5z" />
<glyph unicode="&#xbb;" horiz-adv-x="1174" d="M113 258q0 53 42 96l195 201l-195 201q-42 43 -42 96q0 54 35.5 92.5t86.5 38.5q67 0 111 -61l173 -239q51 -70 51 -128t-51 -128l-173 -239q-44 -61 -111 -61q-51 0 -86.5 38.5t-35.5 92.5zM605 258q0 54 41 96l196 201l-196 201q-41 43 -41 96q0 54 35.5 92.5 t85.5 38.5q67 0 112 -61l173 -239q51 -71 51 -128t-51 -128l-173 -239q-45 -61 -112 -61q-50 0 -85.5 38.5t-35.5 92.5z" />
<glyph unicode="&#xbc;" horiz-adv-x="1846" d="M168 1277q0 54 47 76q25 12 75 12h111h14q119 0 119 -113v-12v-577q0 -54 -14 -80q-27 -49 -91 -49t-91 49q-14 26 -14 80v526h-34q-122 0 -122 88zM578 55q0 25 19 72l471 1181q19 51 42 71.5t60 20.5q40 0 69 -28t29 -66q0 -24 -19 -70l-472 -1182q-20 -51 -42.5 -71 t-59.5 -20q-39 0 -68 27.5t-29 64.5zM1115 256q0 24 11 43l254 441q52 91 146 91q65 0 102 -42q38 -41 38 -100v-341h14q43 0 70 -23.5t27 -60.5q0 -40 -29 -64.5t-80 -26.5l-2 -64q0 -51 -13 -75q-26 -46 -86 -46q-98 0 -98 121v64h-243q-51 0 -81 22.5t-30 60.5zM1345 348 h124v221z" />
<glyph unicode="&#xbd;" horiz-adv-x="1846" d="M168 1277q0 54 47 76q25 12 75 12h111h14q119 0 119 -113v-12v-577q0 -54 -14 -80q-27 -49 -91 -49t-91 49q-14 26 -14 80v526h-34q-122 0 -122 88zM578 55q0 25 19 72l471 1181q19 51 42 71.5t60 20.5q40 0 69 -28t29 -66q0 -24 -19 -70l-472 -1182q-20 -51 -42.5 -71 t-59.5 -20q-39 0 -68 27.5t-29 64.5zM1143 84q0 40 55 94q32 32 127.5 135.5t115.5 127.5q77 93 77 143q0 31 -21.5 52t-53.5 21q-66 0 -89 -76q-19 -67 -38.5 -87.5t-61.5 -20.5q-44 0 -71 27t-27 70q0 120 105 203q83 66 192 66q118 0 203 -74q78 -69 78 -176 q0 -63 -25.5 -119t-88.5 -128q-77 -89 -160 -166h169q123 0 123 -88t-123 -88h-370q-56 0 -86 22t-30 62z" />
<glyph unicode="&#xbe;" horiz-adv-x="1846" d="M86 756q0 36 29.5 62.5t70.5 26.5q34 0 51 -13t48 -64q36 -58 102 -58q46 0 75 27t29 69q0 75 -100 84q-107 10 -107 89q0 38 24 60q15 13 76 29q76 19 76 74q0 26 -20 43t-52 17q-48 0 -96 -50q-47 -50 -89 -50q-38 0 -64.5 25.5t-26.5 61.5q0 71 69 124q93 72 215 72 q105 0 182 -57q81 -62 81 -166q0 -54 -19.5 -90.5t-69.5 -72.5q137 -74 137 -205q0 -123 -99 -200q-86 -68 -212 -68q-106 0 -184 47q-54 33 -90 85t-36 98zM578 55q0 26 19 72l471 1181q20 51 42.5 71.5t60.5 20.5q39 0 68 -28t29 -66q0 -24 -18 -70l-472 -1182 q-21 -51 -43 -71t-60 -20q-39 0 -68 27.5t-29 64.5zM1116 256q0 24 11 43l254 441q52 91 146 91q64 0 102 -42t38 -100v-341h14q43 0 70 -23.5t27 -60.5q0 -40 -29 -64.5t-80 -26.5l-2 -64q0 -51 -13 -75q-26 -46 -86 -46q-98 0 -98 121v64h-243q-51 0 -81 22.5t-30 60.5z M1346 348h124v221z" />
<glyph unicode="&#xbf;" horiz-adv-x="988" d="M34 73q0 151 90.5 257.5t249.5 140.5q-1 13 -1 17q0 60 20 101q17 33 53.5 54t77.5 21q40 0 76.5 -21t53.5 -54q20 -40 20 -126v-96q0 -64 -27 -91.5t-102 -39.5q-172 -28 -172 -158q0 -70 55 -106q43 -28 94 -28q86 0 155 94q37 51 64.5 68.5t69.5 17.5q61 0 102 -41 t41 -102q0 -121 -116 -224q-134 -119 -326 -119q-97 0 -188 33t-156 91q-134 120 -134 311zM359 907q0 69 49.5 117.5t120.5 48.5q72 0 122 -55q43 -48 43 -112q0 -75 -55 -125q-48 -43 -112 -43q-75 0 -125 56q-43 48 -43 113z" />
<glyph unicode="&#xc0;" horiz-adv-x="1243" d="M7 128q0 37 26 108l357 981q63 175 232 175q168 0 231 -175l357 -981q26 -71 26 -109q0 -62 -47.5 -106.5t-112.5 -44.5q-61 0 -97.5 38t-61.5 128l-33 119h-525l-33 -119q-25 -90 -61.5 -128t-97.5 -38q-53 0 -97 32q-63 45 -63 120zM458 541h331l-165 519z" />
<glyph unicode="&#xc1;" horiz-adv-x="1243" d="M7 128q0 37 26 108l357 981q63 175 232 175q168 0 231 -175l357 -981q26 -71 26 -109q0 -62 -47.5 -106.5t-112.5 -44.5q-61 0 -97.5 38t-61.5 128l-33 119h-525l-33 -119q-25 -90 -61.5 -128t-97.5 -38q-53 0 -97 32q-63 45 -63 120zM458 541h331l-165 519z" />
<glyph unicode="&#xc2;" horiz-adv-x="1243" d="M7 128q0 37 26 108l357 981q63 175 232 175q168 0 231 -175l357 -981q26 -71 26 -109q0 -62 -47.5 -106.5t-112.5 -44.5q-61 0 -97.5 38t-61.5 128l-33 119h-525l-33 -119q-25 -90 -61.5 -128t-97.5 -38q-53 0 -97 32q-63 45 -63 120zM458 541h331l-165 519z" />
<glyph unicode="&#xc3;" horiz-adv-x="1243" d="M7 128q0 37 26 108l357 981q63 175 232 175q168 0 231 -175l357 -981q26 -71 26 -109q0 -62 -47.5 -106.5t-112.5 -44.5q-61 0 -97.5 38t-61.5 128l-33 119h-525l-33 -119q-25 -90 -61.5 -128t-97.5 -38q-53 0 -97 32q-63 45 -63 120zM458 541h331l-165 519z" />
<glyph unicode="&#xc4;" horiz-adv-x="1243" d="M7 128q0 37 26 108l357 981q63 175 232 175q168 0 231 -175l357 -981q26 -71 26 -109q0 -62 -47.5 -106.5t-112.5 -44.5q-61 0 -97.5 38t-61.5 128l-33 119h-525l-33 -119q-25 -90 -61.5 -128t-97.5 -38q-53 0 -97 32q-63 45 -63 120zM458 541h331l-165 519z" />
<glyph unicode="&#xc5;" horiz-adv-x="1243" d="M7 128q0 37 26 108l357 981q63 175 232 175q168 0 231 -175l357 -981q26 -71 26 -109q0 -62 -47.5 -106.5t-112.5 -44.5q-61 0 -97.5 38t-61.5 128l-33 119h-525l-33 -119q-25 -90 -61.5 -128t-97.5 -38q-53 0 -97 32q-63 45 -63 120zM458 541h331l-165 519z" />
<glyph unicode="&#xc6;" horiz-adv-x="1616" d="M48 120q0 40 32 113l446 1025q28 63 63 85t108 22h678q79 0 116 -19q31 -15 50.5 -49t19.5 -72t-19.5 -72t-50.5 -49q-37 -19 -116 -19h-304v-254h271q79 0 116 -19q31 -15 50.5 -49t19.5 -72t-19.5 -72t-50.5 -49q-37 -19 -116 -19h-271v-271h304q79 0 116 -19 q31 -15 50.5 -49t19.5 -72t-19.5 -72t-50.5 -49q-37 -19 -116 -19h-381q-94 0 -136.5 17t-74.5 68q-26 42 -26 139v8h-356l-48 -117q-30 -74 -65.5 -105t-90.5 -31q-57 0 -99 37q-50 44 -50 104zM522 512h235v556z" />
<glyph unicode="&#xc7;" horiz-adv-x="1171" d="M33 681q0 337 206 536q187 182 473 182q181 0 294 -61t113 -159q0 -60 -36 -99t-92 -39q-35 0 -114 31q-85 34 -164 34q-141 0 -227 -85q-118 -117 -118 -342t116 -334q91 -85 231 -85q59 0 86.5 8t131.5 54q37 16 69 16q53 0 90.5 -42t37.5 -101q0 -91 -100 -154 t-261 -73l-136 -286q-21 -44 -78 -44q-42 0 -72 27t-30 65q0 24 18 61l92 189q-133 24 -253 109q-145 101 -217 274q-60 145 -60 318z" />
<glyph unicode="&#xc8;" horiz-adv-x="1010" d="M95 228v909q0 72 6 101t27 57q53 70 157 70h38h379q79 0 116 -19q31 -15 50.5 -49t19.5 -72t-19.5 -72t-50.5 -49q-37 -19 -116 -19h-293v-260h261q80 0 117 -19q31 -15 50.5 -49t19.5 -72t-19.5 -72t-50.5 -49q-37 -19 -117 -19h-261v-265h293q79 0 116 -19 q31 -15 50.5 -49t19.5 -72t-19.5 -72t-50.5 -49q-37 -19 -116 -19h-379q-79 0 -113 9.5t-65 40.5t-40.5 65t-9.5 113z" />
<glyph unicode="&#xc9;" horiz-adv-x="983" d="M95 228v909q0 72 6 101t27 57q53 70 157 70h38h379q79 0 116 -19q31 -15 50.5 -49t19.5 -72t-19.5 -72t-50.5 -49q-37 -19 -116 -19h-293v-260h261q80 0 117 -19q31 -15 50.5 -49t19.5 -72t-19.5 -72t-50.5 -49q-37 -19 -117 -19h-261v-265h293q79 0 116 -19 q31 -15 50.5 -49t19.5 -72t-19.5 -72t-50.5 -49q-37 -19 -116 -19h-379q-79 0 -113 9.5t-65 40.5t-40.5 65t-9.5 113z" />
<glyph unicode="&#xca;" horiz-adv-x="997" d="M95 228v909q0 72 6 101t27 57q53 70 157 70h38h379q79 0 116 -19q31 -15 50.5 -49t19.5 -72t-19.5 -72t-50.5 -49q-37 -19 -116 -19h-293v-260h261q80 0 117 -19q31 -15 50.5 -49t19.5 -72t-19.5 -72t-50.5 -49q-37 -19 -117 -19h-261v-265h293q79 0 116 -19 q31 -15 50.5 -49t19.5 -72t-19.5 -72t-50.5 -49q-37 -19 -116 -19h-379q-79 0 -113 9.5t-65 40.5t-40.5 65t-9.5 113z" />
<glyph unicode="&#xcb;" horiz-adv-x="997" d="M95 228v909q0 72 6 101t27 57q53 70 157 70h38h379q79 0 116 -19q31 -15 50.5 -49t19.5 -72t-19.5 -72t-50.5 -49q-37 -19 -116 -19h-293v-260h261q80 0 117 -19q31 -15 50.5 -49t19.5 -72t-19.5 -72t-50.5 -49q-37 -19 -117 -19h-261v-265h293q79 0 116 -19 q31 -15 50.5 -49t19.5 -72t-19.5 -72t-50.5 -49q-37 -19 -116 -19h-379q-79 0 -113 9.5t-65 40.5t-40.5 65t-9.5 113z" />
<glyph unicode="&#xcc;" horiz-adv-x="504" d="M-52 1715q0 43 30.5 71.5t76.5 28.5q21 0 32 -5l241 -113q48 -22 59 -36q22 -28 22 -63q0 -45 -29.5 -74t-76.5 -29q-27 0 -44 8l-234 111q-35 17 -43.5 23.5t-17.5 21.5q-16 27 -16 56zM95 189v987q0 89 21 131q18 34 56 56t80 22t80.5 -22t55.5 -56q21 -42 21 -131 v-987q0 -89 -21 -130q-17 -35 -55.5 -57t-80.5 -22t-80 22t-56 56q-21 42 -21 131z" />
<glyph unicode="&#xcd;" horiz-adv-x="504" d="M95 189v987q0 89 21 131q18 34 56 56t80 22t80.5 -22t55.5 -56q21 -42 21 -131v-987q0 -89 -21 -130q-17 -35 -55.5 -57t-80.5 -22t-80 22t-56 56q-21 42 -21 131zM95 1598q0 39 28 70q7 7 54 29l240 113q11 5 33 5q46 0 76.5 -28.5t30.5 -71.5q0 -37 -16 -58t-62 -43 l-234 -111q-17 -8 -44 -8q-47 0 -76.5 29t-29.5 74z" />
<glyph unicode="&#xce;" horiz-adv-x="504" d="M-54 1600q0 32 14 52t53 42l199 113q16 9 42 9q23 0 36 -7l196 -114q45 -25 59 -44t14 -53q0 -45 -29.5 -74.5t-75.5 -29.5q-23 0 -36 8l-165 105l-165 -103q-13 -9 -38 -9q-43 0 -73.5 31t-30.5 74zM95 189v987q0 89 21 131q18 34 56 56t80 22t80.5 -22t55.5 -56 q21 -42 21 -131v-987q0 -89 -21 -130q-17 -35 -55.5 -57t-80.5 -22t-80 22t-56 56q-21 42 -21 131z" />
<glyph unicode="&#xcf;" horiz-adv-x="764" d="M95 189v987q0 89 21 131q18 34 56 56t80 22t80.5 -22t55.5 -56q21 -42 21 -131v-987q0 -89 -21 -130q-17 -35 -55.5 -57t-80.5 -22t-80 22t-56 56q-21 42 -21 131z" />
<glyph unicode="&#xd0;" horiz-adv-x="1359" d="M0 689q0 54 34.5 88t89.5 34h27v327q0 71 6 100t27 57q53 70 157 70h38h256q269 0 438 -124q130 -95 194 -255q58 -147 58 -311q0 -228 -103 -395q-99 -161 -274 -232q-118 -48 -255 -48h-11l-306 5q-78 1 -111.5 10.5t-64.5 40.5q-30 30 -39.5 64.5t-9.5 112.5v332h-27 q-55 0 -89.5 34.5t-34.5 89.5zM465 273h156q171 0 260 91q109 112 109 320q0 214 -124 324q-50 45 -116 64.5t-165 19.5h-120v-281h110q83 0 121 -14q66 -24 66 -116q0 -68 -38.5 -92t-148.5 -24h-110v-292z" />
<glyph unicode="&#xd1;" horiz-adv-x="1394" d="M95 189v1036q0 73 42.5 116.5t113.5 43.5q41 0 70 -15.5t59 -53.5l604 -759v619q0 89 21 131q18 34 56 56t80 22t80.5 -22t55.5 -56q21 -42 21 -131v-1017q0 -49 -9 -77t-33 -55q-44 -47 -108 -47q-49 0 -75.5 18.5t-85.5 94.5l-578 734v-638q0 -89 -21 -130 q-17 -35 -55.5 -57t-80.5 -22t-80 22t-56 56q-21 42 -21 131z" />
<glyph unicode="&#xd2;" horiz-adv-x="1418" d="M34 695q0 106 27.5 212.5t75.5 183.5q103 166 289 250q126 56 283 58q207 0 374 -106q171 -109 247 -302q54 -139 54 -307q0 -350 -225 -555q-179 -163 -446 -163q-304 0 -493 201q-186 198 -186 528zM369 697q0 -207 94 -331q42 -56 109 -88t141 -32q138 0 225 96 q111 124 111 342q0 211 -101 328q-90 105 -237 107q-143 0 -241 -109q-101 -114 -101 -313z" />
<glyph unicode="&#xd3;" horiz-adv-x="1418" d="M34 695q0 106 27.5 212.5t75.5 183.5q103 166 289 250q126 56 283 58q207 0 374 -106q171 -109 247 -302q54 -139 54 -307q0 -350 -225 -555q-179 -163 -446 -163q-304 0 -493 201q-186 198 -186 528zM369 697q0 -207 94 -331q42 -56 109 -88t141 -32q138 0 225 96 q111 124 111 342q0 211 -101 328q-90 105 -237 107q-143 0 -241 -109q-101 -114 -101 -313z" />
<glyph unicode="&#xd4;" horiz-adv-x="1418" d="M34 695q0 106 27.5 212.5t75.5 183.5q103 166 289 250q126 56 283 58q207 0 374 -106q171 -109 247 -302q54 -139 54 -307q0 -350 -225 -555q-179 -163 -446 -163q-304 0 -493 201q-186 198 -186 528zM369 697q0 -207 94 -331q42 -56 109 -88t141 -32q138 0 225 96 q111 124 111 342q0 211 -101 328q-90 105 -237 107q-143 0 -241 -109q-101 -114 -101 -313z" />
<glyph unicode="&#xd5;" horiz-adv-x="1418" d="M34 695q0 106 27.5 212.5t75.5 183.5q103 166 289 250q126 56 283 58q207 0 374 -106q171 -109 247 -302q54 -139 54 -307q0 -350 -225 -555q-179 -163 -446 -163q-304 0 -493 201q-186 198 -186 528zM369 697q0 -207 94 -331q42 -56 109 -88t141 -32q138 0 225 96 q111 124 111 342q0 211 -101 328q-90 105 -237 107q-143 0 -241 -109q-101 -114 -101 -313z" />
<glyph unicode="&#xd6;" horiz-adv-x="1418" d="M34 695q0 106 27.5 212.5t75.5 183.5q103 166 289 250q126 56 283 58q207 0 374 -106q171 -109 247 -302q54 -139 54 -307q0 -350 -225 -555q-179 -163 -446 -163q-304 0 -493 201q-186 198 -186 528zM369 697q0 -207 94 -331q42 -56 109 -88t141 -32q138 0 225 96 q111 124 111 342q0 211 -101 328q-90 105 -237 107q-143 0 -241 -109q-101 -114 -101 -313z" />
<glyph unicode="&#xd7;" d="M147 388q0 37 50 87l214 215l-214 214q-50 50 -50 89q0 40 28.5 68t69.5 28q36 0 86 -51l215 -214l214 214q51 51 89 51q40 0 68 -28.5t28 -69.5q0 -37 -50 -87l-215 -214l215 -215q50 -50 50 -88q0 -41 -28 -69t-70 -28q-36 0 -87 51l-214 214l-215 -214 q-50 -51 -88 -51q-41 0 -68.5 28.5t-27.5 69.5z" />
<glyph unicode="&#xd8;" horiz-adv-x="1418" d="M34 681q0 331 196 527q190 191 487 191q99 0 173.5 -20t170.5 -73l34 41q37 44 60.5 59t56.5 15q50 0 86 -35.5t36 -85.5q0 -43 -54 -108l-36 -42q66 -92 94 -167q47 -126 47 -289q0 -322 -183 -521q-189 -207 -495 -207q-98 0 -171 21t-188 83l-24 -29 q-36 -45 -60.5 -60.5t-57.5 -15.5q-51 0 -87 35.5t-36 85.5q0 42 53 108l35 43q-73 100 -101 188q-36 113 -36 256zM348 676q0 -100 32 -188l493 591q-73 40 -149 40q-160 0 -259 -94q-61 -57 -89 -141t-28 -208zM538 293q81 -47 166 -47q181 0 279 129q88 116 88 317 q0 103 -35 206z" />
<glyph unicode="&#xd9;" horiz-adv-x="1352" d="M82 518v658q0 89 21 131q18 34 56 56t80 22t80.5 -22t55.5 -56q21 -42 21 -131v-613q0 -133 64 -210q36 -42 95 -68t121 -26q66 0 126 28.5t96 77.5q58 77 58 234v577q0 89 21 131q18 34 56 56t80 22t80.5 -22t55.5 -56q21 -42 21 -131v-577q0 -194 -41 -290 q-72 -167 -239 -262q-144 -81 -316 -81q-178 0 -327 88q-128 76 -196.5 195.5t-68.5 268.5z" />
<glyph unicode="&#xda;" horiz-adv-x="1352" d="M82 518v658q0 89 21 131q18 34 56 56t80 22t80.5 -22t55.5 -56q21 -42 21 -131v-613q0 -133 64 -210q36 -42 95 -68t121 -26q66 0 126 28.5t96 77.5q58 77 58 234v577q0 89 21 131q18 34 56 56t80 22t80.5 -22t55.5 -56q21 -42 21 -131v-577q0 -194 -41 -290 q-72 -167 -239 -262q-144 -81 -316 -81q-178 0 -327 88q-128 76 -196.5 195.5t-68.5 268.5z" />
<glyph unicode="&#xdb;" horiz-adv-x="1352" d="M82 518v658q0 89 21 131q18 34 56 56t80 22t80.5 -22t55.5 -56q21 -42 21 -131v-613q0 -133 64 -210q36 -42 95 -68t121 -26q66 0 126 28.5t96 77.5q58 77 58 234v577q0 89 21 131q18 34 56 56t80 22t80.5 -22t55.5 -56q21 -42 21 -131v-577q0 -194 -41 -290 q-72 -167 -239 -262q-144 -81 -316 -81q-178 0 -327 88q-128 76 -196.5 195.5t-68.5 268.5z" />
<glyph unicode="&#xdc;" horiz-adv-x="1352" d="M82 518v658q0 89 21 131q18 34 56 56t80 22t80.5 -22t55.5 -56q21 -42 21 -131v-613q0 -133 64 -210q36 -42 95 -68t121 -26q66 0 126 28.5t96 77.5q58 77 58 234v577q0 89 21 131q18 34 56 56t80 22t80.5 -22t55.5 -56q21 -42 21 -131v-577q0 -194 -41 -290 q-72 -167 -239 -262q-144 -81 -316 -81q-178 0 -327 88q-128 76 -196.5 195.5t-68.5 268.5z" />
<glyph unicode="&#xdd;" horiz-adv-x="1179" d="M34 1232q0 62 47 107.5t112 45.5q47 0 79 -22.5t77 -88.5l232 -331l244 335q46 64 78 86t79 22q81 0 128 -66q31 -43 31 -85q0 -59 -63 -142l-340 -449v-455q0 -89 -21 -130q-17 -35 -55.5 -57t-80.5 -22t-80 22t-56 56q-21 42 -21 131v455l-329 451q-61 84 -61 137z" />
<glyph unicode="&#xde;" horiz-adv-x="1131" d="M102 189v988q0 88 21 130q18 34 56 56t80 22q56 0 98 -34t54 -88q5 -23 5 -75h196q227 0 349 -114q67 -63 105 -155.5t38 -191.5q0 -182 -105 -312q-118 -145 -345 -145h-238v-81q0 -89 -21 -131q-17 -34 -55.5 -56t-80.5 -22t-80 22t-56 56q-21 42 -21 131zM416 543h159 q100 0 156 56q52 53 52 128q0 84 -53 136t-139 52h-175v-372z" />
<glyph unicode="&#xdf;" horiz-adv-x="1122" d="M88 187v845q0 216 131 344q129 126 330 126q182 0 304 -115q125 -118 125 -289q0 -89 -29 -149.5t-101 -118.5q63 -23 96.5 -48t68.5 -75q74 -105 74 -244q0 -185 -127 -328q-138 -155 -321 -155q-80 0 -126 38t-46 104q0 68 48 104q18 14 94 35q79 21 122.5 76.5 t43.5 134.5q0 156 -155 189q-69 14 -87 21t-41 28q-37 35 -37 97q0 58 24.5 88.5t85.5 47.5q119 34 119 138q0 60 -41.5 100.5t-102.5 40.5q-85 0 -123 -65q-29 -49 -29 -163v-807q0 -85 -20 -126q-17 -33 -53.5 -54t-76.5 -21t-76.5 21t-53.5 54q-20 40 -20 126z" />
<glyph unicode="&#xe0;" horiz-adv-x="1148" d="M34 524q0 242 157 398q138 136 314 136q79 0 135.5 -26t120.5 -92q25 59 60.5 85.5t88.5 26.5q63 0 106 -44t43 -110v-735q0 -78 -42 -127.5t-109 -49.5q-105 0 -150 119q-58 -71 -112 -98t-137 -27q-167 0 -297 115q-178 157 -178 429zM260 1393q0 43 29.5 73t71.5 30 q21 0 38 -7l309 -126q45 -19 63.5 -41t18.5 -58q0 -45 -29.5 -74t-74.5 -29q-28 0 -46 8l-303 124q-77 32 -77 100zM334 522q0 -117 56 -189q57 -73 153 -73q92 0 150 72.5t58 188.5q0 123 -64 192q-59 64 -145 65q-93 0 -152 -72q-56 -71 -56 -184z" />
<glyph unicode="&#xe1;" horiz-adv-x="1148" d="M34 524q0 242 157 398q138 136 314 136q79 0 135.5 -26t120.5 -92q25 59 60.5 85.5t88.5 26.5q63 0 106 -44t43 -110v-735q0 -78 -42 -127.5t-109 -49.5q-105 0 -150 119q-58 -71 -112 -98t-137 -27q-167 0 -297 115q-178 157 -178 429zM334 522q0 -117 56 -189 q57 -73 153 -73q92 0 150 72.5t58 188.5q0 123 -64 192q-59 64 -145 65q-93 0 -152 -72q-56 -71 -56 -184zM383 1264q0 36 18 58t64 41l309 126q17 7 37 7q43 0 72.5 -30t29.5 -73q0 -68 -77 -100l-303 -124q-19 -8 -46 -8q-45 0 -74.5 29t-29.5 74z" />
<glyph unicode="&#xe2;" horiz-adv-x="1148" d="M34 524q0 242 157 398q138 136 314 136q79 0 135.5 -26t120.5 -92q25 59 60.5 85.5t88.5 26.5q63 0 106 -44t43 -110v-735q0 -78 -42 -127.5t-109 -49.5q-105 0 -150 119q-58 -71 -112 -98t-137 -27q-167 0 -297 115q-178 157 -178 429zM227 1266q0 60 67 93l253 127 q18 9 42 9q22 0 36 -7l251 -127q73 -37 73 -98q0 -44 -29.5 -73.5t-73.5 -29.5q-23 0 -38 8l-220 118l-219 -117q-15 -8 -39 -8q-42 0 -72.5 31t-30.5 74zM334 522q0 -117 56 -189q57 -73 153 -73q92 0 150 72.5t58 188.5q0 123 -64 192q-59 64 -145 65q-93 0 -152 -72 q-56 -71 -56 -184z" />
<glyph unicode="&#xe3;" horiz-adv-x="1148" d="M34 524q0 242 157 398q138 136 314 136q79 0 135.5 -26t120.5 -92q25 59 60.5 85.5t88.5 26.5q63 0 106 -44t43 -110v-735q0 -78 -42 -127.5t-109 -49.5q-105 0 -150 119q-58 -71 -112 -98t-137 -27q-167 0 -297 115q-178 157 -178 429zM218 1275q0 83 68 138 q62 49 144 50q49 0 86.5 -12.5t135.5 -62.5q36 -18 69 -18q21 0 32 8.5t26 36.5q26 49 77 49q38 0 64 -27t26 -67q0 -77 -63.5 -132t-151.5 -55q-66 0 -155 44q-101 49 -133 49q-23 0 -33.5 -9.5t-38.5 -54.5q-20 -32 -64 -32q-42 0 -65.5 25.5t-23.5 69.5zM334 522 q0 -117 56 -189q57 -73 153 -73q92 0 150 72.5t58 188.5q0 123 -64 192q-59 64 -145 65q-93 0 -152 -72q-56 -71 -56 -184z" />
<glyph unicode="&#xe4;" horiz-adv-x="1148" d="M34 524q0 242 157 398q138 136 314 136q79 0 135.5 -26t120.5 -92q25 59 60.5 85.5t88.5 26.5q63 0 106 -44t43 -110v-735q0 -78 -42 -127.5t-109 -49.5q-105 0 -150 119q-58 -71 -112 -98t-137 -27q-167 0 -297 115q-178 157 -178 429zM216 1323q0 62 44.5 105.5 t108.5 43.5q60 0 103.5 -44.5t43.5 -105.5q0 -62 -44 -106t-106 -44q-63 0 -106.5 44t-43.5 107zM334 522q0 -117 56 -189q57 -73 153 -73q92 0 150 72.5t58 188.5q0 123 -64 192q-59 64 -145 65q-93 0 -152 -72q-56 -71 -56 -184zM660 1323q0 62 44.5 105.5t108.5 43.5 q60 0 103.5 -44.5t43.5 -105.5q0 -62 -44 -106t-106 -44q-63 0 -106.5 44t-43.5 107z" />
<glyph unicode="&#xe5;" horiz-adv-x="1148" d="M34 524q0 242 157 398q138 136 314 136q79 0 135.5 -26t120.5 -92q25 59 60.5 85.5t88.5 26.5q63 0 106 -44t43 -110v-735q0 -78 -42 -127.5t-109 -49.5q-105 0 -150 119q-58 -71 -112 -98t-137 -27q-167 0 -297 115q-178 157 -178 429zM334 522q0 -117 56 -189 q57 -73 153 -73q92 0 150 72.5t58 188.5q0 123 -64 192q-59 64 -145 65q-93 0 -152 -72q-56 -71 -56 -184zM379 1357q0 87 67 147q56 52 138 52q86 0 146 -66q52 -57 52 -135q0 -90 -67 -149q-57 -52 -134 -52q-90 0 -150 66q-52 58 -52 137zM503 1356q0 -32 23 -55t55 -23 q31 0 54 22.5t23 54.5t-22 54t-54 23q-33 0 -56 -22.5t-23 -53.5z" />
<glyph unicode="&#xe6;" horiz-adv-x="1776" d="M34 526q0 226 137 379q65 73 153 113.5t181 40.5q84 0 141 -26.5t112 -90.5q2 59 30 84.5t91 25.5q50 0 75 -16t38 -57q58 44 112 61.5t128 17.5q207 0 354 -152q72 -74 114 -173.5t42 -194.5q0 -59 -31.5 -82t-111.5 -23h-554q23 -58 45.5 -86.5t64.5 -51.5 q63 -35 144 -35q49 0 83 8.5t143 48.5q37 14 70 14q55 0 92.5 -35.5t37.5 -86.5q0 -40 -26 -77.5t-72 -63.5q-70 -40 -163 -64t-179 -24q-98 0 -162 21t-131 76q-3 -91 -124 -91q-59 0 -84.5 27.5t-29.5 94.5q-33 -43 -54.5 -61t-57.5 -34q-78 -34 -156 -34q-121 0 -240 81 q-108 74 -166 223q-46 121 -46 243zM334 521q0 -114 52 -184q58 -78 150 -78q93 0 151 75.5t58 196.5q0 118 -60 186q-54 61 -143 62q-92 0 -150 -72t-58 -186zM1039 632h404q-50 188 -202 188q-76 0 -128 -48.5t-74 -139.5z" />
<glyph unicode="&#xe7;" horiz-adv-x="936" d="M34 514q0 262 157 407q70 64 165.5 101t192.5 37q148 0 260 -61q38 -22 61 -59t23 -78q0 -56 -35 -96t-84 -40q-28 0 -108 30q-63 24 -109 24q-97 0 -159.5 -73t-62.5 -187q0 -125 69 -195q64 -64 160 -64q57 0 120 29q56 26 87 26q58 0 93 -46q31 -41 31 -90 q0 -73 -79.5 -126.5t-210.5 -68.5l-144 -302q-21 -44 -78 -44q-42 0 -72 27t-30 65q0 24 18 61l101 205q-140 43 -229 140q-137 149 -137 378z" />
<glyph unicode="&#xe8;" horiz-adv-x="1082" d="M34 503q0 263 169 420q146 135 346 135q175 0 311 -108q87 -70 138 -180.5t51 -231.5q0 -119 -131 -119h-560q33 -90 91.5 -133.5t146.5 -43.5q54 0 92 12.5t156 70.5q31 15 67 15q54 0 90 -46q30 -39 30 -77q0 -85 -121 -154q-146 -83 -329 -83q-275 0 -433 191 q-114 138 -114 332zM242 1393q0 43 29.5 73t71.5 30q21 0 38 -7l309 -126q45 -19 63.5 -41t18.5 -58q0 -45 -29.5 -74t-74.5 -29q-28 0 -46 8l-303 124q-77 32 -77 100zM347 624h406q-19 74 -44 110q-55 78 -152 78q-76 0 -127 -45.5t-83 -142.5z" />
<glyph unicode="&#xe9;" horiz-adv-x="1082" d="M34 503q0 263 169 420q146 135 346 135q175 0 311 -108q87 -70 138 -180.5t51 -231.5q0 -119 -131 -119h-560q33 -90 91.5 -133.5t146.5 -43.5q54 0 92 12.5t156 70.5q31 15 67 15q54 0 90 -46q30 -39 30 -77q0 -85 -121 -154q-146 -83 -329 -83q-275 0 -433 191 q-114 138 -114 332zM347 624h406q-19 74 -44 110q-55 78 -152 78q-76 0 -127 -45.5t-83 -142.5zM353 1264q0 36 18 58t64 41l309 126q17 7 37 7q43 0 72.5 -30t29.5 -73q0 -68 -77 -100l-303 -124q-19 -8 -46 -8q-45 0 -74.5 29t-29.5 74z" />
<glyph unicode="&#xea;" horiz-adv-x="1082" d="M34 503q0 263 169 420q146 135 346 135q175 0 311 -108q87 -70 138 -180.5t51 -231.5q0 -119 -131 -119h-560q33 -90 91.5 -133.5t146.5 -43.5q54 0 92 12.5t156 70.5q31 15 67 15q54 0 90 -46q30 -39 30 -77q0 -85 -121 -154q-146 -83 -329 -83q-275 0 -433 191 q-114 138 -114 332zM180 1266q0 60 67 93l253 127q18 9 42 9q22 0 36 -7l251 -127q73 -37 73 -98q0 -44 -29.5 -73.5t-73.5 -29.5q-23 0 -38 8l-220 118l-219 -117q-15 -8 -39 -8q-42 0 -72.5 31t-30.5 74zM347 624h406q-19 74 -44 110q-55 78 -152 78q-76 0 -127 -45.5 t-83 -142.5z" />
<glyph unicode="&#xeb;" horiz-adv-x="1082" d="M34 503q0 263 169 420q146 135 346 135q175 0 311 -108q87 -70 138 -180.5t51 -231.5q0 -119 -131 -119h-560q33 -90 91.5 -133.5t146.5 -43.5q54 0 92 12.5t156 70.5q31 15 67 15q54 0 90 -46q30 -39 30 -77q0 -85 -121 -154q-146 -83 -329 -83q-275 0 -433 191 q-114 138 -114 332zM169 1323q0 62 44.5 105.5t108.5 43.5q60 0 103.5 -44.5t43.5 -105.5q0 -62 -44 -106t-106 -44q-63 0 -106.5 44t-43.5 107zM347 624h406q-19 74 -44 110q-55 78 -152 78q-76 0 -127 -45.5t-83 -142.5zM613 1323q0 62 44.5 105.5t108.5 43.5 q60 0 103.5 -44.5t43.5 -105.5q0 -62 -44 -106t-106 -44q-63 0 -106.5 44t-43.5 107z" />
<glyph unicode="&#xec;" horiz-adv-x="527" d="M-31 1397q0 41 29 72t68 31q22 0 42 -11l227 -126q47 -26 64.5 -48t17.5 -55q0 -43 -29 -73.5t-71 -30.5q-28 0 -50 13l-221 124q-45 26 -61 47.5t-16 56.5zM116 187v664q0 86 20 126q17 33 53.5 54t76.5 21t76.5 -21t53.5 -54q20 -40 20 -126v-664q0 -86 -20 -126 q-17 -33 -53 -54t-77 -21q-40 0 -76.5 21t-53.5 54q-20 40 -20 126z" />
<glyph unicode="&#xed;" horiz-adv-x="527" d="M110 187v664q0 86 20 126q17 33 53.5 54t76.5 21t76.5 -21t53.5 -54q20 -40 20 -126v-664q0 -86 -20 -126q-17 -33 -53.5 -54t-76.5 -21t-76.5 21t-53.5 54q-20 40 -20 126zM110 1260q0 33 17.5 55t64.5 48l227 126q19 11 42 11q39 0 68 -31t29 -72q0 -35 -16 -56.5 t-61 -47.5l-221 -124q-23 -13 -50 -13q-42 0 -71 30t-29 74z" />
<glyph unicode="&#xee;" horiz-adv-x="526" d="M-43 1266q0 51 37 74l229 145q16 10 39 10t39 -10l231 -146q38 -24 38 -75q0 -45 -30 -74.5t-76 -29.5q-24 0 -35 8l-165 118l-165 -117q-11 -8 -38 -8q-43 0 -73.5 30.5t-30.5 74.5zM110 187v664q0 86 20 126q17 33 53.5 54t76.5 21t76.5 -21t53.5 -54q20 -40 20 -126 v-664q0 -86 -20 -126q-17 -33 -53 -54t-77 -21q-40 0 -76.5 21t-53.5 54q-20 40 -20 126z" />
<glyph unicode="&#xef;" horiz-adv-x="774" d="M110 187v664q0 86 20 126q17 33 53.5 54t76.5 21t76.5 -21t53.5 -54q20 -40 20 -126v-664q0 -86 -20 -126q-17 -33 -53.5 -54t-76.5 -21t-76.5 21t-53.5 54q-20 40 -20 126z" />
<glyph unicode="&#xf0;" horiz-adv-x="1078" d="M35 514q0 199 111 342q128 166 339 181q17 1 62 4q-21 16 -54 45q-27 22 -73 61l-134 -67q-35 -18 -60 -18q-37 0 -64.5 30.5t-27.5 70.5q0 32 17 51.5t65 43.5l53 26q-42 46 -42 94q0 58 39 98t95 40q74 0 179 -103l141 70q21 11 47 11q39 0 67.5 -31.5t28.5 -75.5 q0 -48 -67 -81l-74 -36q153 -147 239 -303q120 -215 120 -435q0 -240 -135 -388q-74 -82 -181 -126q-92 -38 -187 -38q-142 0 -267 78q-124 78 -186 213q-51 112 -51 243zM333 523q0 -109 50 -178q60 -85 151 -85q81 0 142 64q70 73 70 196q0 121 -70 195q-59 63 -142 64 q-85 0 -143 -74t-58 -182z" />
<glyph unicode="&#xf1;" horiz-adv-x="1116" d="M88 187v688q0 83 42 129q44 48 111 48q97 0 139 -105q67 62 128.5 86.5t149.5 24.5q157 0 260 -91q61 -53 85 -116.5t24 -171.5v-492q0 -86 -20 -126q-16 -33 -53 -54t-77 -21t-76.5 21t-53.5 54q-20 40 -20 126v421q0 85 -43 135q-49 56 -126 56q-72 0 -121 -51.5 t-49 -127.5v-433q0 -86 -20 -126q-17 -33 -53.5 -54t-76.5 -21t-76.5 21t-53.5 54q-20 40 -20 126zM193 1275q0 83 68 138q62 49 144 50q49 0 86.5 -12.5t135.5 -62.5q36 -18 69 -18q21 0 32 8.5t26 36.5q26 49 77 49q38 0 64 -27t26 -67q0 -77 -63.5 -132t-151.5 -55 q-66 0 -155 44q-101 49 -133 49q-23 0 -33.5 -9.5t-38.5 -54.5q-20 -32 -64 -32q-42 0 -65.5 25.5t-23.5 69.5z" />
<glyph unicode="&#xf2;" horiz-adv-x="1078" d="M35 526q0 105 35.5 203t98.5 165q151 161 370 164q140 0 266 -79q124 -78 186 -212q51 -112 51 -248q0 -227 -134 -375q-75 -82 -182 -126q-92 -38 -186 -38q-143 0 -268 78q-124 78 -186 213q-51 112 -51 255zM205 1393q0 43 29.5 73t71.5 30q21 0 38 -7l309 -126 q45 -19 63.5 -41t18.5 -58q0 -45 -29.5 -74t-74.5 -29q-28 0 -46 8l-303 124q-77 32 -77 100zM333 522q0 -108 50 -177q60 -85 151 -85q81 0 142 64q70 72 70 195q0 121 -70 195q-59 63 -142 64q-85 0 -143 -74t-58 -182z" />
<glyph unicode="&#xf3;" horiz-adv-x="1078" d="M35 526q0 105 35.5 203t98.5 165q151 161 370 164q140 0 266 -79q124 -78 186 -212q51 -112 51 -248q0 -227 -134 -375q-75 -82 -182 -126q-92 -38 -186 -38q-143 0 -268 78q-124 78 -186 213q-51 112 -51 255zM333 522q0 -108 50 -177q60 -85 151 -85q81 0 142 64 q70 72 70 195q0 121 -70 195q-59 63 -142 64q-85 0 -143 -74t-58 -182zM349 1264q0 36 18 58t64 41l309 126q17 7 37 7q43 0 72.5 -30t29.5 -73q0 -68 -77 -100l-303 -124q-19 -8 -46 -8q-45 0 -74.5 29t-29.5 74z" />
<glyph unicode="&#xf4;" horiz-adv-x="1078" d="M35 526q0 105 35.5 203t98.5 165q151 161 370 164q140 0 266 -79q124 -78 186 -212q51 -112 51 -248q0 -227 -134 -375q-75 -82 -182 -126q-92 -38 -186 -38q-143 0 -268 78q-124 78 -186 213q-51 112 -51 255zM178 1266q0 60 67 93l253 127q18 9 42 9q22 0 36 -7 l251 -127q73 -37 73 -98q0 -44 -29.5 -73.5t-73.5 -29.5q-23 0 -38 8l-220 118l-219 -117q-15 -8 -39 -8q-42 0 -72.5 31t-30.5 74zM333 522q0 -108 50 -177q60 -85 151 -85q81 0 142 64q70 72 70 195q0 121 -70 195q-59 63 -142 64q-85 0 -143 -74t-58 -182z" />
<glyph unicode="&#xf5;" horiz-adv-x="1078" d="M35 526q0 105 35.5 203t98.5 165q151 161 370 164q140 0 266 -79q124 -78 186 -212q51 -112 51 -248q0 -227 -134 -375q-75 -82 -182 -126q-92 -38 -186 -38q-143 0 -268 78q-124 78 -186 213q-51 112 -51 255zM183 1275q0 83 68 138q62 49 144 50q49 0 86.5 -12.5 t135.5 -62.5q36 -18 69 -18q21 0 32 8.5t26 36.5q26 49 77 49q38 0 64 -27t26 -67q0 -77 -63.5 -132t-151.5 -55q-66 0 -155 44q-101 49 -133 49q-23 0 -33.5 -9.5t-38.5 -54.5q-20 -32 -64 -32q-42 0 -65.5 25.5t-23.5 69.5zM333 522q0 -108 50 -177q60 -85 151 -85 q81 0 142 64q70 72 70 195q0 121 -70 195q-59 63 -142 64q-85 0 -143 -74t-58 -182z" />
<glyph unicode="&#xf6;" horiz-adv-x="1078" d="M35 526q0 105 35.5 203t98.5 165q151 161 370 164q140 0 266 -79q124 -78 186 -212q51 -112 51 -248q0 -227 -134 -375q-75 -82 -182 -126q-92 -38 -186 -38q-143 0 -268 78q-124 78 -186 213q-51 112 -51 255zM167 1323q0 62 44.5 105.5t108.5 43.5q60 0 103.5 -44.5 t43.5 -105.5q0 -62 -44 -106t-106 -44q-63 0 -106.5 44t-43.5 107zM333 522q0 -108 50 -177q60 -85 151 -85q81 0 142 64q70 72 70 195q0 121 -70 195q-59 63 -142 64q-85 0 -143 -74t-58 -182zM611 1323q0 62 44.5 105.5t108.5 43.5q60 0 103.5 -44.5t43.5 -105.5 q0 -62 -44 -106t-106 -44q-63 0 -106.5 44t-43.5 107z" />
<glyph unicode="&#xf7;" d="M68 690q0 58 48 82q24 13 79 13h702q54 0 79 -13q48 -24 48 -82t-47 -82q-26 -13 -89 -13h-693q-54 0 -79 13q-48 24 -48 82zM392 315q0 63 45 107t109 45q63 0 108 -45t45 -108q0 -64 -45 -109t-108 -45q-64 0 -109 45t-45 110zM392 1066q0 63 45 107t109 45 q63 0 108 -45t45 -108q0 -64 -45 -109t-108 -45q-65 0 -109.5 45t-44.5 110z" />
<glyph unicode="&#xf8;" horiz-adv-x="1184" d="M78 100q0 43 57 105l20 22q-73 154 -73 292q0 216 135 367q80 88 190 134q94 38 196 38q128 0 260 -76l15 17q61 65 112 65q49 0 83.5 -34.5t34.5 -84.5q0 -43 -59 -106l-22 -24q39 -72 55.5 -139t16.5 -152q0 -241 -149 -393q-70 -71 -166.5 -111t-200.5 -40 q-145 0 -265 79l-12 -13q-61 -65 -111 -65q-48 0 -82.5 35t-34.5 84zM355 532q0 -45 18 -110l309 349q-49 28 -94 28q-106 0 -171 -83q-62 -79 -62 -184zM496 261q43 -24 92 -24q105 0 170.5 77.5t65.5 201.5q0 47 -12 104z" />
<glyph unicode="&#xf9;" horiz-adv-x="1111" d="M88 405v446q0 85 20 126q17 33 53 54t77 21q40 0 76.5 -21t53.5 -54q20 -40 20 -126v-409q0 -47 10.5 -75t37.5 -54q49 -48 119 -48t119 48q48 46 48 129v409q0 86 20 126q17 33 53.5 54t76.5 21t76.5 -21t53.5 -54q20 -40 20 -126v-446q0 -153 -73 -248 q-62 -80 -160 -126q-110 -52 -234 -52q-174 0 -305 93q-85 60 -123.5 139.5t-38.5 193.5zM221 1393q0 43 29.5 73t71.5 30q21 0 38 -7l309 -126q45 -19 63.5 -41t18.5 -58q0 -45 -29.5 -74t-74.5 -29q-28 0 -46 8l-303 124q-77 32 -77 100z" />
<glyph unicode="&#xfa;" horiz-adv-x="1111" d="M88 405v446q0 85 20 126q17 33 53 54t77 21q40 0 76.5 -21t53.5 -54q20 -40 20 -126v-409q0 -47 10.5 -75t37.5 -54q49 -48 119 -48t119 48q48 46 48 129v409q0 86 20 126q17 33 53.5 54t76.5 21t76.5 -21t53.5 -54q20 -40 20 -126v-446q0 -153 -73 -248 q-62 -80 -160 -126q-110 -52 -234 -52q-174 0 -305 93q-85 60 -123.5 139.5t-38.5 193.5zM379 1264q0 36 18 58t64 41l309 126q17 7 37 7q43 0 72.5 -30t29.5 -73q0 -68 -77 -100l-303 -124q-19 -8 -46 -8q-45 0 -74.5 29t-29.5 74z" />
<glyph unicode="&#xfb;" horiz-adv-x="1111" d="M88 405v446q0 85 20 126q17 33 53 54t77 21q40 0 76.5 -21t53.5 -54q20 -40 20 -126v-409q0 -47 10.5 -75t37.5 -54q49 -48 119 -48t119 48q48 46 48 129v409q0 86 20 126q17 33 53.5 54t76.5 21t76.5 -21t53.5 -54q20 -40 20 -126v-446q0 -153 -73 -248 q-62 -80 -160 -126q-110 -52 -234 -52q-174 0 -305 93q-85 60 -123.5 139.5t-38.5 193.5zM194 1266q0 60 67 93l253 127q18 9 42 9q22 0 36 -7l251 -127q73 -37 73 -98q0 -44 -29.5 -73.5t-73.5 -29.5q-23 0 -38 8l-220 118l-219 -117q-15 -8 -39 -8q-42 0 -72.5 31 t-30.5 74z" />
<glyph unicode="&#xfc;" horiz-adv-x="1111" d="M88 405v446q0 85 20 126q17 33 53 54t77 21q40 0 76.5 -21t53.5 -54q20 -40 20 -126v-409q0 -47 10.5 -75t37.5 -54q49 -48 119 -48t119 48q48 46 48 129v409q0 86 20 126q17 33 53.5 54t76.5 21t76.5 -21t53.5 -54q20 -40 20 -126v-446q0 -153 -73 -248 q-62 -80 -160 -126q-110 -52 -234 -52q-174 0 -305 93q-85 60 -123.5 139.5t-38.5 193.5zM183 1323q0 62 44.5 105.5t108.5 43.5q60 0 103.5 -44.5t43.5 -105.5q0 -62 -44 -106t-106 -44q-63 0 -106.5 44t-43.5 107zM627 1323q0 62 44.5 105.5t108.5 43.5q60 0 103.5 -44.5 t43.5 -105.5q0 -62 -44 -106t-106 -44q-63 0 -106.5 44t-43.5 107z" />
<glyph unicode="&#xfd;" horiz-adv-x="1018" d="M21 910q0 58 45 100.5t106 42.5q58 0 92 -31t66 -111l176 -445l176 442q32 82 67 113.5t94 31.5q57 0 100 -36q53 -45 53 -110q0 -41 -31 -114l-458 -1092q-24 -57 -41 -81q-43 -58 -117 -58q-56 0 -99 37q-51 44 -51 106q0 41 31 113l118 277l-297 702q-30 72 -30 113z M347 1264q0 36 18 58t64 41l309 126q17 7 37 7q43 0 72.5 -30t29.5 -73q0 -68 -77 -100l-303 -124q-19 -8 -46 -8q-45 0 -74.5 29t-29.5 74z" />
<glyph unicode="&#xfe;" horiz-adv-x="1126" d="M88 -223v1525q0 85 20 125q17 33 53.5 54t76.5 21t76.5 -21t53.5 -54q20 -40 20 -125v-364q42 61 93 85q76 36 166 36q160 0 280 -116q164 -160 164 -414q0 -234 -136 -397q-128 -152 -328 -152q-70 0 -121.5 19t-117.5 69v-291q0 -85 -20 -125q-17 -33 -53.5 -54 t-76.5 -21t-76.5 21t-53.5 54q-20 40 -20 125zM379 523q0 -118 56 -190.5t147 -72.5q93 0 149 77q59 80 59 183q0 104 -59 182q-57 76 -149 77q-85 0 -138 -63q-65 -76 -65 -193z" />
<glyph unicode="&#xff;" horiz-adv-x="1018" d="M21 910q0 58 45 100.5t106 42.5q58 0 92 -31t66 -111l176 -445l176 442q32 82 67 113.5t94 31.5q57 0 100 -36q53 -45 53 -110q0 -41 -31 -114l-458 -1092q-24 -57 -41 -81q-43 -58 -117 -58q-56 0 -99 37q-51 44 -51 106q0 41 31 113l118 277l-297 702q-30 72 -30 113z M138 1323q0 62 44.5 105.5t108.5 43.5q60 0 103.5 -44.5t43.5 -105.5q0 -62 -44 -106t-106 -44q-63 0 -106.5 44t-43.5 107zM582 1323q0 62 44.5 105.5t108.5 43.5q60 0 103.5 -44.5t43.5 -105.5q0 -62 -44 -106t-106 -44q-63 0 -106.5 44t-43.5 107z" />
<glyph unicode="&#x152;" horiz-adv-x="1917" d="M34 671q0 231 103 411q100 174 283 257q136 61 294 61q117 0 198.5 -30t168.5 -105q3 59 24.5 79.5t80.5 20.5h490q79 0 116 -19q31 -15 50.5 -49t19.5 -72t-19.5 -72t-50.5 -49q-37 -19 -116 -19h-312v-258h272q80 0 117 -19q31 -15 50.5 -49t19.5 -72t-19.5 -72 t-50.5 -49q-37 -19 -117 -19h-272v-267h312q79 0 116 -19q31 -15 50.5 -49t19.5 -72t-19.5 -72t-50.5 -49q-37 -19 -116 -19h-483q-65 0 -88.5 16t-23.5 60v10q-80 -57 -149 -81q-112 -39 -237 -39q-188 0 -344 86q-169 94 -251 282q-66 154 -66 337zM374 689 q0 -206 89 -322q94 -121 251 -121q139 0 226 97q112 126 112 340q0 215 -112 340q-85 95 -226 97q-156 0 -251 -121q-89 -115 -89 -310z" />
<glyph unicode="&#x153;" horiz-adv-x="1779" d="M34 518q0 223 128 372q70 81 170 126q95 42 199 42q108 0 192.5 -32t175.5 -108q139 140 341 140q276 0 416 -235q37 -62 62.5 -151t25.5 -157q0 -81 -126 -81h-567q12 -53 30 -81t56 -52q67 -41 158 -41q52 0 89 9.5t145 50.5q40 15 72 15q52 0 87.5 -39.5t35.5 -96.5 q0 -77 -83 -125q-162 -94 -375 -94q-229 0 -379 146q-163 -147 -349 -147q-220 0 -360 149q-144 153 -144 390zM334 521q0 -118 62 -193q56 -69 135 -69q92 0 152.5 73.5t60.5 184.5q0 114 -57 186.5t-147 74.5q-91 0 -148.5 -72t-57.5 -185zM1043 631h406q-21 85 -57 125 q-57 63 -142 63q-76 0 -125.5 -45t-81.5 -143z" />
<glyph unicode="&#x178;" horiz-adv-x="1179" d="M34 1232q0 62 47 107.5t112 45.5q47 0 79 -22.5t77 -88.5l232 -331l244 335q46 64 78 86t79 22q81 0 128 -66q31 -43 31 -85q0 -59 -63 -142l-340 -449v-455q0 -89 -21 -130q-17 -35 -55.5 -57t-80.5 -22t-80 22t-56 56q-21 42 -21 131v455l-329 451q-61 84 -61 137z" />
<glyph unicode="&#x2c6;" horiz-adv-x="1024" d="M151 1266q0 60 67 93l253 127q18 9 42 9q22 0 36 -7l251 -127q73 -37 73 -98q0 -44 -29.5 -73.5t-73.5 -29.5q-23 0 -38 8l-220 118l-219 -117q-15 -8 -39 -8q-42 0 -72.5 31t-30.5 74z" />
<glyph unicode="&#x2dc;" horiz-adv-x="1024" d="M148 1275q0 83 68 138q62 49 144 50q49 0 86.5 -12.5t135.5 -62.5q36 -18 69 -18q21 0 32 8.5t26 36.5q26 49 77 49q38 0 64 -27t26 -67q0 -77 -63.5 -132t-151.5 -55q-66 0 -155 44q-101 49 -133 49q-23 0 -33.5 -9.5t-38.5 -54.5q-20 -32 -64 -32q-42 0 -65.5 25.5 t-23.5 69.5z" />
<glyph unicode="&#x2000;" horiz-adv-x="908" />
<glyph unicode="&#x2001;" horiz-adv-x="1816" />
<glyph unicode="&#x2002;" horiz-adv-x="908" />
<glyph unicode="&#x2003;" horiz-adv-x="1816" />
<glyph unicode="&#x2004;" horiz-adv-x="605" />
<glyph unicode="&#x2005;" horiz-adv-x="454" />
<glyph unicode="&#x2006;" horiz-adv-x="302" />
<glyph unicode="&#x2007;" horiz-adv-x="302" />
<glyph unicode="&#x2008;" horiz-adv-x="227" />
<glyph unicode="&#x2009;" horiz-adv-x="363" />
<glyph unicode="&#x200a;" horiz-adv-x="100" />
<glyph unicode="&#x2010;" horiz-adv-x="505" d="M0 566q0 34 18 65.5t46 45.5q34 17 107 17h163q73 0 107 -17q28 -14 46 -45.5t18 -65.5q0 -35 -18 -66.5t-46 -45.5q-34 -17 -107 -17h-163q-73 0 -107 17q-28 14 -46 45.5t-18 66.5z" />
<glyph unicode="&#x2011;" horiz-adv-x="505" d="M0 566q0 34 18 65.5t46 45.5q34 17 107 17h163q73 0 107 -17q28 -14 46 -45.5t18 -65.5q0 -35 -18 -66.5t-46 -45.5q-34 -17 -107 -17h-163q-73 0 -107 17q-28 14 -46 45.5t-18 66.5z" />
<glyph unicode="&#x2012;" horiz-adv-x="505" d="M0 566q0 34 18 65.5t46 45.5q34 17 107 17h163q73 0 107 -17q28 -14 46 -45.5t18 -65.5q0 -35 -18 -66.5t-46 -45.5q-34 -17 -107 -17h-163q-73 0 -107 17q-28 14 -46 45.5t-18 66.5z" />
<glyph unicode="&#x2013;" d="M96 566q0 34 18 65.5t46 45.5q34 17 107 17h559q73 0 107 -17q28 -14 46 -45.5t18 -65.5q0 -35 -18 -66.5t-46 -45.5q-34 -17 -107 -17h-559q-73 0 -107 17q-28 14 -46 45.5t-18 66.5z" />
<glyph unicode="&#x2014;" horiz-adv-x="1529" d="M0 566q0 34 18 65.5t46 45.5q34 17 107 17h1187q73 0 107 -17q28 -14 46 -45.5t18 -65.5q0 -35 -18 -66.5t-46 -45.5q-34 -17 -107 -17h-1187q-73 0 -107 17q-28 14 -46 45.5t-18 66.5z" />
<glyph unicode="&#x2018;" horiz-adv-x="502" d="M55 1271q0 54 39.5 91t95.5 37q73 0 109 -64l161 -289q15 -27 15 -57q0 -52 -39 -90t-92 -38q-72 0 -107 61l-165 288q-17 29 -17 61z" />
<glyph unicode="&#x2019;" horiz-adv-x="502" d="M39 989q0 30 16 58l157 274q34 58 102 58q56 0 92 -42q32 -38 32 -80q0 -29 -15 -55l-152 -274q-34 -61 -103 -61q-61 0 -97 41q-32 37 -32 81z" />
<glyph unicode="&#x201a;" horiz-adv-x="502" d="M39 -180q0 30 16 58l157 274q33 58 102 58q56 0 92 -42q32 -38 32 -79q0 -29 -15 -55l-152 -274q-34 -61 -103 -61q-61 0 -97 41q-32 36 -32 80z" />
<glyph unicode="&#x201c;" horiz-adv-x="939" d="M55 1271q0 54 39.5 91t95.5 37q73 0 109 -64l161 -289q15 -27 15 -57q0 -52 -39 -90t-92 -38q-72 0 -107 61l-165 288q-17 29 -17 61zM492 1271q0 54 39.5 91t95.5 37q73 0 109 -64l160 -289q16 -28 16 -57q0 -52 -39 -90t-92 -38q-72 0 -107 61l-165 288q-17 29 -17 61z " />
<glyph unicode="&#x201d;" horiz-adv-x="939" d="M27 989q0 31 17 61l165 288q35 61 107 61q60 0 97 -44q34 -40 34 -84q0 -30 -15 -57l-161 -289q-36 -64 -109 -64q-63 0 -101 43q-34 38 -34 85zM464 989q0 32 17 61l165 288q35 61 107 61q60 0 97 -44q34 -40 34 -84q0 -30 -16 -57l-160 -289q-36 -64 -109 -64 q-63 0 -101 43q-34 38 -34 85z" />
<glyph unicode="&#x201e;" horiz-adv-x="939" d="M27 -144q0 32 17 61l165 288q35 61 107 61q60 0 97 -44q34 -40 34 -83q0 -31 -15 -58l-161 -289q-36 -64 -109 -64q-63 0 -101 43q-34 38 -34 85zM464 -144q0 32 17 61l165 288q35 61 107 61q60 0 97 -44q34 -40 34 -83q0 -30 -16 -58l-160 -289q-36 -64 -109 -64 q-63 0 -101 43q-34 38 -34 85z" />
<glyph unicode="&#x2022;" horiz-adv-x="1365" d="M401 694q0 121 84 202q86 82 204 82q113 0 196 -83q84 -83 84 -201t-83 -201t-201 -83q-116 0 -199 82q-85 84 -85 202z" />
<glyph unicode="&#x2026;" horiz-adv-x="1638" d="M106 135q0 69 49.5 117.5t120.5 48.5q72 0 122 -55q43 -48 43 -112q0 -75 -55 -125q-48 -43 -112 -43q-75 0 -125 55q-43 48 -43 114zM652 135q0 69 49.5 117.5t120.5 48.5q72 0 122 -55q43 -48 43 -112q0 -75 -55 -125q-48 -43 -112 -43q-75 0 -125 55q-43 48 -43 114z M1198 135q0 69 49.5 117.5t120.5 48.5q72 0 122 -55q43 -48 43 -112q0 -75 -55 -125q-48 -43 -112 -43q-75 0 -125 55q-43 48 -43 114z" />
<glyph unicode="&#x202f;" horiz-adv-x="363" />
<glyph unicode="&#x2039;" horiz-adv-x="682" d="M113 555q0 58 51 128l173 239q45 61 112 61q50 0 85.5 -38.5t35.5 -92.5q0 -53 -41 -96l-196 -201l196 -201q41 -43 41 -96q0 -54 -35.5 -92.5t-85.5 -38.5q-67 0 -112 61l-173 239q-51 70 -51 128z" />
<glyph unicode="&#x203a;" horiz-adv-x="682" d="M113 258q0 53 42 96l195 201l-195 201q-42 43 -42 96q0 54 35.5 92.5t86.5 38.5q67 0 111 -61l173 -239q51 -70 51 -128t-51 -128l-173 -239q-44 -61 -111 -61q-51 0 -86.5 38.5t-35.5 92.5z" />
<glyph unicode="&#x205f;" horiz-adv-x="454" />
<glyph unicode="&#x2122;" horiz-adv-x="1610" d="M14 1280q0 85 117 85h365q117 0 117 -85t-117 -85h-81v-495q0 -52 -13 -77q-26 -47 -86 -47q-61 0 -87 47q-13 25 -13 77v495h-85q-117 0 -117 85zM614 672q0 12 6 42l95 556q19 107 131 107q94 0 122 -80l128 -375l119 358q14 45 49 70.5t79 25.5q48 0 84.5 -27.5 t44.5 -69.5l103 -563q6 -31 6 -46q0 -40 -28.5 -67.5t-70.5 -27.5q-45 0 -69.5 25.5t-34.5 83.5l-57 333l-106 -333q-21 -66 -43.5 -87.5t-70.5 -21.5q-80 0 -110 88l-120 354l-55 -333q-10 -57 -34.5 -82.5t-69.5 -25.5q-42 0 -70 27t-28 69z" />
<glyph unicode="&#x25fc;" horiz-adv-x="1055" d="M0 0v1055h1055v-1055h-1055z" />
</font>
</defs>
</svg>
